<svg xmlns="http://www.w3.org/2000/svg" width="76.3" height="15" viewBox="0 0 76.3 15">
  <path id="パス_79" data-name="パス 79" d="M8.1-14H4.8L1.3-2.3H0V0H5.1V-2.3H3.9l.7-2.3H8.3L9-2.3H7.8V0h5.1V-2.3H11.6ZM6.4-10.7h.1L7.8-6.5H5.1ZM23.3,0c2.7,0,4.3-1.6,4.3-3.9a3.531,3.531,0,0,0-2.8-3.6v-.1a2.713,2.713,0,0,0,1.9-2.7c0-2.2-1.5-3.7-4.1-3.7h-6v2.3h1.5v9.4H16.6V0ZM20.7-11.7h1.9c.7,0,1.3.6,1.3,1.7,0,1-.6,1.6-1.3,1.6H20.7Zm0,5.6h2.6c.8,0,1.5.7,1.5,1.9s-.7,1.9-1.5,1.9H20.7ZM44.3-7c0-4.7-2.8-7.5-6.3-7.5S31.7-11.7,31.7-7,34.5.5,38,.5,44.3-2.3,44.3-7ZM41.5-7c0,3.6-1.7,5.3-3.5,5.3S34.5-3.4,34.5-7s1.7-5.3,3.5-5.3S41.5-10.6,41.5-7Zm10.8-7H48.2v2.3h1.5v7.5A4.6,4.6,0,0,0,54.5.5a4.6,4.6,0,0,0,4.8-4.7v-7.5h1.5V-14H55.2v2.3h1.5v7.5a2.27,2.27,0,0,1-2.2,2.4,2.27,2.27,0,0,1-2.2-2.4Zm19.8,2.3H74V-9h2.3v-5h-11v5h2.3v-2.7h1.9v9.4H68V0h5.6V-2.3H72.1Z" transform="translate(0 14.5)" fill="#0f0f0f"/>
</svg>
