<svg xmlns="http://www.w3.org/2000/svg" width="127.1" height="15" viewBox="0 0 127.1 15">
  <path id="パス_18" data-name="パス 18" d="M4.9-2.3v-9.4H6.6c1.9,0,3.3,1.4,3.3,4.7S8.5-2.3,6.6-2.3ZM12.7-7c0-4.3-2.7-7-6.1-7H.8v2.3H2.3v9.4H.8V0H6.6C10,0,12.7-2.7,12.7-7ZM29.4-7c0-4.7-2.8-7.5-6.3-7.5S16.8-11.7,16.8-7,19.6.5,23.1.5,29.4-2.3,29.4-7ZM26.6-7c0,3.6-1.7,5.3-3.5,5.3S19.6-3.4,19.6-7s1.7-5.3,3.5-5.3S26.6-10.6,26.6-7Zm17.8-5.6a6.434,6.434,0,0,0-4.5-1.9c-3.6,0-6.4,2.8-6.4,7.5S36.3.5,39.9.5A6.028,6.028,0,0,0,44.8-2L43.3-3.8s-1.4,2.1-3.4,2.1C38-1.7,36.3-3.4,36.3-7s1.7-5.3,3.6-5.3a3.1,3.1,0,0,1,2.2.9v2h2.3ZM52.8-14H48.7v2.3h1.5v7.5A4.6,4.6,0,0,0,55,.5a4.6,4.6,0,0,0,4.8-4.7v-7.5h1.5V-14H55.7v2.3h1.5v7.5A2.27,2.27,0,0,1,55-1.8a2.27,2.27,0,0,1-2.2-2.4ZM73.2-4l3.1-5.2h.1v6.9H74.9V0h5.6V-2.3H79v-9.4h1.5V-14h-4L73-7.9h-.1L69.4-14h-4v2.3h1.5v9.4H65.4V0H71V-2.3H69.5V-9.2h.1L72.7-4ZM85,0H95.4V-4.6H93.1v2.3h-4V-6h3V-8.3h-3v-3.4h4v2.3h2.3V-14H85v2.3h1.5v9.4H85Zm15.1-14v2.3h1.5v9.4h-1.5V0h5.6V-2.3h-1.5V-8.9h.1L108.8,0h2.5V-11.7h1.5V-14h-5.6v2.3h1.5v6.6h-.1L104.2-14Zm23.6,2.3h1.9V-9h2.3v-5h-11v5h2.3v-2.7h1.9v9.4h-1.5V0h5.6V-2.3h-1.5Z" transform="translate(-0.8 14.5)" fill="#0f0f0f"/>
</svg>
