<svg xmlns="http://www.w3.org/2000/svg" width="116.4" height="15" viewBox="0 0 116.4 15">
  <path id="パス_84" data-name="パス 84" d="M.8,0H6.4V-2.3H4.9V-5.7H8.1V-8H4.9v-3.7H8.7v2.5H11V-14H.8v2.3H2.3v9.4H.8ZM15.5,0H25.9V-4.6H23.6v2.3h-4V-6h3V-8.3h-3v-3.4h4v2.3h2.3V-14H15.5v2.3H17v9.4H15.5ZM37.9-14H34.6L31.1-2.3H29.8V0h5.1V-2.3H33.7l.7-2.3h3.7l.7,2.3H37.6V0h5.1V-2.3H41.4Zm-1.7,3.3h.1l1.3,4.2H34.9Zm15.8-1h1.9V-9h2.3v-5h-11v5h2.3v-2.7h1.9v9.4H47.9V0h5.6V-2.3H52ZM64.4-14H60.3v2.3h1.5v7.5A4.6,4.6,0,0,0,66.6.5a4.6,4.6,0,0,0,4.8-4.7v-7.5h1.5V-14H67.3v2.3h1.5v7.5a2.27,2.27,0,0,1-2.2,2.4,2.27,2.27,0,0,1-2.2-2.4ZM81.1-5.6H83L86,0h3V-2.3H87.6L85.5-6.2v-.1a3.534,3.534,0,0,0,2.3-3.5c0-2.6-1.6-4.2-4.3-4.2H77v2.3h1.5v9.4H77V0h5.6V-2.3H81.1Zm0-6.1h2.4c.8,0,1.5.7,1.5,1.9s-.7,1.9-1.5,1.9H81.1ZM92.9,0h10.4V-4.6H101v2.3H97V-6h3V-8.3H97v-3.4h4v2.3h2.3V-14H92.9v2.3h1.5v9.4H92.9Zm24.3-3.7c0-5-6.1-3.9-6.1-6.9a1.628,1.628,0,0,1,1.7-1.7,2.632,2.632,0,0,1,1.7.7v1.8h2.3v-3a6.284,6.284,0,0,0-4-1.7c-2.7,0-4.5,1.8-4.5,3.9,0,5,6.1,3.9,6.1,6.9a2.03,2.03,0,0,1-2.1,2c-1.9,0-3.2-2-3.2-2l-1.5,1.8A5.927,5.927,0,0,0,112.3.5C115.3.5,117.2-1.4,117.2-3.7Z" transform="translate(-0.8 14.5)" fill="#0f0f0f"/>
</svg>
