<svg xmlns="http://www.w3.org/2000/svg" width="118" height="47.1" viewBox="0 0 118 47.1">
  <g id="title" transform="translate(-624.334 -1232.935)">
    <path id="パス_74" data-name="パス 74" d="M-55.48-4.16h1.92a3.3,3.3,0,0,0,3.6-3.52,3.3,3.3,0,0,0-3.6-3.52h-5.2v1.84h1.2v7.52h-1.2V0h4.48V-1.84h-1.2Zm0-5.2h1.92A1.5,1.5,0,0,1-52.2-7.68,1.5,1.5,0,0,1-53.56-6h-1.92ZM-36.44-5.6c0-3.76-2.24-6-5.04-6s-5.04,2.24-5.04,6,2.24,6,5.04,6S-36.44-1.84-36.44-5.6Zm-2.24,0c0,2.88-1.36,4.24-2.8,4.24s-2.8-1.36-2.8-4.24,1.36-4.24,2.8-4.24S-38.68-8.48-38.68-5.6Zm13.04,2.64c0-4-4.88-3.12-4.88-5.52a1.3,1.3,0,0,1,1.36-1.36,2.106,2.106,0,0,1,1.36.56v1.44h1.84v-2.4a5.027,5.027,0,0,0-3.2-1.36,3.308,3.308,0,0,0-3.6,3.12c0,4,4.88,3.12,4.88,5.52a1.624,1.624,0,0,1-1.68,1.6,3.568,3.568,0,0,1-2.56-1.6l-1.2,1.44A4.741,4.741,0,0,0-29.56.4C-27.16.4-25.64-1.12-25.64-2.96Zm10.96,0c0-4-4.88-3.12-4.88-5.52A1.3,1.3,0,0,1-18.2-9.84a2.106,2.106,0,0,1,1.36.56v1.44H-15v-2.4a5.027,5.027,0,0,0-3.2-1.36,3.308,3.308,0,0,0-3.6,3.12c0,4,4.88,3.12,4.88,5.52a1.624,1.624,0,0,1-1.68,1.6,3.568,3.568,0,0,1-2.56-1.6l-1.2,1.44A4.741,4.741,0,0,0-18.6.4C-16.2.4-14.68-1.12-14.68-2.96Zm4.96,1.12h-1.36V0h4.8V-1.84H-7.64V-9.36h1.36V-11.2h-4.8v1.84h1.36ZM2.68,0C4.84,0,6.12-1.28,6.12-3.12A2.825,2.825,0,0,0,3.88-6v-.08A2.17,2.17,0,0,0,5.4-8.24C5.4-10,4.2-11.2,2.12-11.2h-4.8v1.84h1.2v7.52h-1.2V0ZM.6-9.36H2.12c.56,0,1.04.48,1.04,1.36,0,.8-.48,1.28-1.04,1.28H.6Zm0,4.48H2.68c.64,0,1.2.56,1.2,1.52s-.56,1.52-1.2,1.52H.6ZM10.92-1.84H9.56V0h4.8V-1.84H13V-9.36h1.36V-11.2H9.56v1.84h1.36Zm7.04-7.52h1.2v7.52h-1.2V0h8.08V-3.92H24.2v2.08H21.24V-9.36h1.2V-11.2H17.96ZM31-1.84H29.64V0h4.8V-1.84H33.08V-9.36h1.36V-11.2h-4.8v1.84H31ZM43.48-9.36H45V-7.2h1.84v-4h-8.8v4h1.84V-9.36H41.4v7.52H40.2V0h4.48V-1.84h-1.2ZM55.64-4.24l2.48-5.12h1.12V-11.2H56.68L54.632-6.88h-.064L52.52-11.2H49.96v1.84h1.12l2.48,5.12v2.4h-1.2V0h4.48V-1.84h-1.2Z" transform="translate(683.094 1244.535)" fill="#fff"/>
    <path id="パス_75" data-name="パス 75" d="M-1.31-7c0-5-2.5-7.5-5.5-7.5s-5.5,2.5-5.5,7.5S-9.81.5-6.81.5-1.31-2-1.31-7Zm-2.8,0c0,4-1.3,5.3-2.7,5.3S-9.51-3-9.51-7s1.3-5.3,2.7-5.3S-4.11-11-4.11-7Zm13.4-3.1c0,1.7-1,2.74-2.2,3.9L2.99-2.3V0h9.12V-2.3H6.69v-.1L9.49-5a6.712,6.712,0,0,0,2.6-5.1c0-2.5-1.9-4.4-4.9-4.4a6.284,6.284,0,0,0-4,1.7v3h2.3v-1.8a2.632,2.632,0,0,1,1.7-.7A2.076,2.076,0,0,1,9.29-10.1Z" transform="translate(683.384 1279.535)" fill="#fff"/>
    <path id="line" d="M664.832,1264.51c.035-1.88,1.55-4.071,3.989-5.48s5.073-1.622,6.72-.726" fill="none" stroke="#fff" stroke-width="2"/>
  </g>
</svg>
