<svg xmlns="http://www.w3.org/2000/svg" width="131.1" height="15" viewBox="0 0 131.1 15">
  <path id="パス_72" data-name="パス 72" d="M.8-11.7H2.3v9.4H.8V0H10.9V-4.9H8.6v2.6H4.9v-9.4H6.4V-14H.8ZM17.1-2.3H15.4V0h6V-2.3H19.7v-9.4h1.7V-14h-6v2.3h1.7ZM25.9,0h5.6V-2.3H30V-5.7h3.2V-8H30v-3.7h3.8v2.5h2.3V-14H25.9v2.3h1.5v9.4H25.9ZM40.6,0H51V-4.6H48.7v2.3h-4V-6h3V-8.3h-3v-3.4h4v2.3H51V-14H40.6v2.3h1.5v9.4H40.6ZM72-3.7c0-5-6.1-3.9-6.1-6.9a1.628,1.628,0,0,1,1.7-1.7,2.632,2.632,0,0,1,1.7.7v1.8h2.3v-3a6.284,6.284,0,0,0-4-1.7c-2.7,0-4.5,1.8-4.5,3.9,0,5,6.1,3.9,6.1,6.9a2.03,2.03,0,0,1-2.1,2c-1.9,0-3.2-2-3.2-2L62.4-1.9A5.927,5.927,0,0,0,67.1.5C70.1.5,72-1.4,72-3.7Zm11.3-8h1.9V-9h2.3v-5h-11v5h2.3v-2.7h1.9v9.4H79.2V0h5.6V-2.3H83.3ZM98.5-5.3l3.1-6.4H103V-14H99.8L97.24-8.6h-.08L94.6-14H91.4v2.3h1.4l3.1,6.4v3H94.4V0H100V-2.3H98.5Zm8.4-6.4h1.5v9.4h-1.5V0H117V-4.9h-2.3v2.6H111v-9.4h1.5V-14h-5.6ZM121.5,0h10.4V-4.6h-2.3v2.3h-4V-6h3V-8.3h-3v-3.4h4v2.3h2.3V-14H121.5v2.3H123v9.4h-1.5Z" transform="translate(-0.8 14.5)" fill="#0f0f0f"/>
</svg>
