<svg xmlns="http://www.w3.org/2000/svg" xmlns:xlink="http://www.w3.org/1999/xlink" width="295" height="66" viewBox="0 0 295 66">
  <defs>
    <clipPath id="clip-path">
      <rect id="crop" width="295" height="66" fill="none"/>
    </clipPath>
  </defs>
  <g id="copy" transform="translate(-40 -226)">
    <g id="copy-2" data-name="copy" transform="translate(40 226)" clip-path="url(#clip-path)">
      <g id="グループ_1" data-name="グループ 1">
        <path id="パス_1" data-name="パス 1" d="M89.572,49.2a.72.72,0,0,1,.308.482c0,.249-.143.3-.542.309a.7.7,0,0,0-.558.3,37.89,37.89,0,0,1-4.024,4.829.718.718,0,0,0-.2.491v6.836c0,2.9-1.482,3.436-5.087,3.557a.716.716,0,0,1-.708-.566,7.881,7.881,0,0,0-.379-1.412.7.7,0,0,1,.678-.931c.119,0,.241,0,.369,0,2.017,0,2.213-.311,2.213-1.9V59.528a.691.691,0,0,0-1.109-.559,48.035,48.035,0,0,1-12.692,6.324.692.692,0,0,1-.863-.4,4.944,4.944,0,0,0-.691-1.225.7.7,0,0,1,.379-1.1,39.609,39.609,0,0,0,9.474-3.89.706.706,0,0,0-.449-1.307c-2.406.34-3.424.461-4.917.629-.788.073-2.595.289-3.6.422a.671.671,0,0,0-.539.4.52.52,0,0,1-.486.374c-.252,0-.309-.17-.364-.4l-.472-2.22a.7.7,0,0,1,.637-.85c.485-.028,1.126-.075,2.664-.178a.7.7,0,0,0,.644-.687V43.12a.7.7,0,0,1,.695-.7h3.012a.692.692,0,0,0,.63-.407c.218-.479.552-1.256.841-2.084a.692.692,0,0,1,.719-.463l2.7.259c.252.028.448.057.448.312,0,.221-.063.293-.588.51a.707.707,0,0,0-.388.4c-.057.15-.12.307-.2.487a.7.7,0,0,0,.636.986h6.09a.7.7,0,0,1,.695.7v5.905a.693.693,0,0,0,1.262.406c.371-.538.641-.977.862-1.36a.686.686,0,0,1,1-.219ZM72.956,46.645H80.95a.7.7,0,0,0,.695-.7V45.5a.7.7,0,0,0-.695-.7H72.956a.7.7,0,0,0-.695.7v.437A.7.7,0,0,0,72.956,46.645Zm7.994,2.014H72.956a.7.7,0,0,0-.695.7v.493a.7.7,0,0,0,.695.7H80.95a.7.7,0,0,0,.695-.7v-.493A.7.7,0,0,0,80.95,48.659Zm0,4.028H72.956a.7.7,0,0,0-.695.7V54.5a.7.7,0,0,0,.756.7c3.55-.3,4.36-.382,8-.777a.72.72,0,0,0,.623-.7V53.39A.7.7,0,0,0,80.95,52.687Z" fill="#0f0f0f"/>
        <path id="パス_2" data-name="パス 2" d="M102.483,41.71c.392.142.616.227.616.482,0,.177-.131.255-.311.295a.706.706,0,0,0-.5.49,39.9,39.9,0,0,0-1.737,11.808c0,.332,0,.632.011.908a.693.693,0,0,0,1.331.258l.084-.195a.693.693,0,0,1,1.152-.188,4.743,4.743,0,0,0,.484.453.71.71,0,0,1,.209.834,18.87,18.87,0,0,0-1.709,6.546.686.686,0,0,1-.483.659l-1.518.442a.691.691,0,0,1-.847-.439,28.47,28.47,0,0,1-1.515-9.9,57.47,57.47,0,0,1,1.6-12.777.7.7,0,0,1,.925-.517Zm6.434,12.954a.7.7,0,0,1,.5.967,5.291,5.291,0,0,0-.493,2.1c0,1.758,2.017,2.1,4.986,2.1a30.061,30.061,0,0,0,5.93-.54.7.7,0,0,1,.828.776c-.048.413-.085.917-.094,1.516a.7.7,0,0,1-.608.687,54.117,54.117,0,0,1-5.973.341c-3.417,0-7.815-.341-7.815-4.028a9.7,9.7,0,0,1,.86-3.721.7.7,0,0,1,.78-.422ZM107.244,44.54a.7.7,0,0,1,.745-.7c.591.044,1.3.085,2.28.085a35.125,35.125,0,0,0,7.957-.724.682.682,0,0,1,.852.6c.054.468.114,1.024.162,1.458a.7.7,0,0,1-.565.773,47.139,47.139,0,0,1-8.434.7c-.991,0-1.734-.045-2.344-.08a.7.7,0,0,1-.653-.7Z" fill="#0f0f0f"/>
        <path id="パス_3" data-name="パス 3" d="M128.156,46.956a.7.7,0,0,1,.552-.938,24.246,24.246,0,0,0,3.379-.791c5.686-1.645,8.543-2.354,11.709-2.354,6.526,0,9.327,4.339,9.327,8.934,0,9.76-12.543,10.876-16.374,11.064a.7.7,0,0,1-.706-.533,12.976,12.976,0,0,0-.483-1.567.7.7,0,0,1,.639-.95c4.381-.083,13.843-.755,13.843-7.957,0-2.014-.812-6.3-6.639-6.3-3.038,0-8.865,1.643-13.477,3.977a.691.691,0,0,1-.967-.382Z" fill="#0f0f0f"/>
        <path id="パス_4" data-name="パス 4" d="M166.425,41.569c.308.086.448.113.448.34a.377.377,0,0,1-.3.348.733.733,0,0,0-.467.475,36.5,36.5,0,0,0-1.255,9.842,31.326,31.326,0,0,0,.213,3.806.694.694,0,0,0,1.342.163l.041-.113c.237-.645.509-1.29.756-1.842a.665.665,0,0,1,1.041-.275,7.082,7.082,0,0,0,.821.524.708.708,0,0,1,.28.939A28.722,28.722,0,0,0,166.7,63.5a.692.692,0,0,1-.532.584l-1.319.3a.692.692,0,0,1-.789-.394C162.052,59.37,162,53.345,162,52.006a47.562,47.562,0,0,1,1.2-10.56.7.7,0,0,1,.855-.515Zm13.781-.908c.588.057.756.085.756.312a.337.337,0,0,1-.173.294.711.711,0,0,0-.328.6c.018,2.581.024,3.516.036,4.3a.7.7,0,0,0,.844.674,23.79,23.79,0,0,0,2.852-.791.7.7,0,0,1,.925.665c0,.468.008.861.038,1.365a.705.705,0,0,1-.46.709,24.114,24.114,0,0,1-3.589.9.705.705,0,0,0-.565.694c0,4.619-.049,6.893-1.2,9.507a14.739,14.739,0,0,1-4.111,5.41.686.686,0,0,1-.953-.083,7.607,7.607,0,0,0-1.146-1.02.71.71,0,0,1-.017-1.131c4.16-3.244,4.719-6.454,4.643-12.084a.686.686,0,0,0-.755-.689,56.316,56.316,0,0,1-5.746.249.7.7,0,0,1-.681-.644l-.127-1.52a.7.7,0,0,1,.76-.759,18.753,18.753,0,0,0,1.913.075c.673,0,2.166-.022,3.908-.187a.7.7,0,0,0,.634-.729c-.053-1.29-.183-3.656-.4-5.6a.7.7,0,0,1,.772-.775Z" fill="#0f0f0f"/>
        <path id="パス_5" data-name="パス 5" d="M211.2,43.1c-1.183,1.05-3.79,3.471-5.644,5.227a.7.7,0,0,0,.57,1.209,11.749,11.749,0,0,1,1.812-.137c4.005,0,7.87,2.382,7.87,7.175,0,6.013-5.91,8.594-10.28,8.594-3.613,0-6.442-1.645-6.442-4.538,0-2.3,1.933-3.97,4.677-3.97.316,0,4.5,0,5.687,4.023a.661.661,0,0,0,1.033.421,4.785,4.785,0,0,0,2.44-4.274c0-2.78-1.989-4.963-5.714-4.963-4.531,0-7.4,2.5-11.557,6.861a.692.692,0,0,1-.988.019l-1.189-1.174a.707.707,0,0,1,.053-1.053,153.955,153.955,0,0,0,11.306-10.868.7.7,0,0,0-.607-1.178c-2.457.374-5.44.633-7.2.766a.7.7,0,0,1-.735-.589l-.241-1.509a.7.7,0,0,1,.686-.815c3.018.02,9.26-.366,12.941-1.534a.694.694,0,0,1,.769.24l.841,1.115A.706.706,0,0,1,211.2,43.1Zm-5.168,16.991a4.078,4.078,0,0,0-2.577-1.022,1.536,1.536,0,0,0-1.736,1.56c0,1.758,2.3,2.241,3.417,2.241a7.4,7.4,0,0,0,1.361-.128.707.707,0,0,0,.555-.843A3.216,3.216,0,0,0,206.029,60.089Z" fill="#0f0f0f"/>
        <path id="パス_6" data-name="パス 6" d="M231.047,58.724c2.192,3.126-.021,6.386-2.836,6.386a3.765,3.765,0,0,1-3.726-3.772c0-2.978,3.385-5.044,6.392-2.789A.783.783,0,0,1,231.047,58.724Zm-5.077,2.614a2.244,2.244,0,0,0,2.241,2.269,2.338,2.338,0,0,0,1.775-3.785.776.776,0,0,0-.2-.216A2.305,2.305,0,0,0,225.971,61.337Z" fill="#0f0f0f"/>
      </g>
      <g id="グループ_3" data-name="グループ 3">
        <path id="パス_7" data-name="パス 7" d="M4.09,1.594a.7.7,0,0,1,.739-.7l2.285.15c.168,0,.645.028.645.4,0,.151-.138.263-.314.346a.694.694,0,0,0-.388.63V6.578a.7.7,0,0,0,.695.7H10.93a.7.7,0,0,0,.695-.7V.71a.7.7,0,0,1,.735-.7l2.15.126c.224,0,.672.057.672.369,0,.153-.151.276-.333.368a.692.692,0,0,0-.368.619V6.578a.7.7,0,0,0,.695.7h2.953a.7.7,0,0,0,.695-.7V1.448a.7.7,0,0,1,.735-.7L21.68.872c.224,0,.616.028.616.34,0,.159-.142.286-.324.386a.707.707,0,0,0-.348.624V6.578a.7.7,0,0,0,.695.7h2.953a.7.7,0,0,1,.695.7V9.3a.7.7,0,0,1-.695.7H22.319a.7.7,0,0,0-.695.7v8.18a.7.7,0,0,1-.695.7H19.423a.6.6,0,0,1-.6-.607v-.091a.6.6,0,0,0-.6-.607H15.176a.7.7,0,0,0-.695.7v.238a.7.7,0,0,1-.695.7H12.319a.7.7,0,0,1-.695-.7v-8.52a.7.7,0,0,0-.695-.7H7.753a.7.7,0,0,0-.695.7V21.355a.7.7,0,0,0,.695.7H23.338a.7.7,0,0,1,.695.7v1.344a.7.7,0,0,1-.695.7H7.658a.6.6,0,0,0-.6.607v.062a.6.6,0,0,1-.6.607H4.784a.7.7,0,0,1-.695-.7V10.708A.7.7,0,0,0,3.4,10H.695A.7.7,0,0,1,0,9.3V7.985a.7.7,0,0,1,.695-.7H3.4a.7.7,0,0,0,.695-.7ZM18.129,10H15.176a.7.7,0,0,0-.695.7v4.181a.7.7,0,0,0,.695.7h2.953a.7.7,0,0,0,.695-.7V10.708A.7.7,0,0,0,18.129,10Z" fill="#0f0f0f"/>
        <path id="パス_8" data-name="パス 8" d="M50.506,26.085H48.982a.7.7,0,0,1-.695-.7V16.107a.7.7,0,0,1,.757-.7l.783.072a19.274,19.274,0,0,1-3.436-3.491.689.689,0,0,0-.554-.282h-.751a.694.694,0,0,0-.537.262,22.878,22.878,0,0,1-2.148,2.3.705.705,0,0,0,.393,1.217l.2.023c.252.028.644.057.644.4a.444.444,0,0,1-.329.435.707.707,0,0,0-.459.644c-.04,2.017-.48,6.854-5.3,9.148a.724.724,0,0,1-.9-.263,5.923,5.923,0,0,0-.839-.988.706.706,0,0,1,.194-1.141A6.667,6.667,0,0,0,40.054,17.6a.694.694,0,0,0-1.063-.638,26.428,26.428,0,0,1-4.231,2.236.693.693,0,0,1-.849-.277,7.941,7.941,0,0,0-.843-1.082.7.7,0,0,1,.29-1.147,19.446,19.446,0,0,0,6.626-3.733.708.708,0,0,0-.445-1.247H35.957a.7.7,0,0,1-.695-.7V1.66a.7.7,0,0,1,.695-.7H55.352a.7.7,0,0,1,.695.7V11a.7.7,0,0,1-.695.7H51.3a.706.706,0,0,0-.441,1.251,22.5,22.5,0,0,0,6.867,3.684.709.709,0,0,1,.328,1.131,8.818,8.818,0,0,0-.821,1.149.718.718,0,0,1-.836.3,28.7,28.7,0,0,1-4.153-2.089.693.693,0,0,0-1.047.606v7.648A.7.7,0,0,1,50.506,26.085ZM43.476,3.226H38.954a.7.7,0,0,0-.695.7v.636a.7.7,0,0,0,.695.7h4.521a.7.7,0,0,0,.695-.7V3.929A.7.7,0,0,0,43.476,3.226Zm0,4.113H38.954a.7.7,0,0,0-.695.7v.692a.7.7,0,0,0,.695.7h4.521a.7.7,0,0,0,.695-.7V8.042A.7.7,0,0,0,43.476,7.338Zm4.386-2.07h4.521a.7.7,0,0,0,.695-.7V3.929a.7.7,0,0,0-.695-.7H47.862a.7.7,0,0,0-.695.7v.636A.7.7,0,0,0,47.862,5.268Zm0,4.169h4.521a.7.7,0,0,0,.695-.7V8.042a.7.7,0,0,0-.695-.7H47.862a.7.7,0,0,0-.695.7v.692A.7.7,0,0,0,47.862,9.437Z" fill="#0f0f0f"/>
        <path id="パス_9" data-name="パス 9" d="M70.245,2.006c.392.142.616.227.616.482,0,.178-.131.255-.311.295a.705.705,0,0,0-.5.49,39.89,39.89,0,0,0-1.737,11.808c0,.332,0,.632.011.908a.693.693,0,0,0,1.331.258l.084-.195a.693.693,0,0,1,1.152-.188,4.744,4.744,0,0,0,.484.453.71.71,0,0,1,.209.834A18.857,18.857,0,0,0,69.874,23.7a.686.686,0,0,1-.483.659l-1.518.442a.691.691,0,0,1-.846-.439,28.47,28.47,0,0,1-1.515-9.9,57.437,57.437,0,0,1,1.6-12.777.694.694,0,0,1,.925-.517Zm6.434,12.954a.7.7,0,0,1,.5.967,5.294,5.294,0,0,0-.494,2.1c0,1.758,2.017,2.1,4.987,2.1a30.1,30.1,0,0,0,5.93-.539.7.7,0,0,1,.828.776c-.047.413-.085.916-.094,1.515a.7.7,0,0,1-.608.686,53.994,53.994,0,0,1-5.973.341c-3.417,0-7.815-.34-7.815-4.027a9.7,9.7,0,0,1,.86-3.721.7.7,0,0,1,.78-.423ZM75.007,4.836a.7.7,0,0,1,.745-.7c.591.044,1.3.085,2.28.085A35.16,35.16,0,0,0,85.989,3.5a.682.682,0,0,1,.852.6c.053.468.114,1.024.162,1.458a.7.7,0,0,1-.565.773,47.139,47.139,0,0,1-8.434.7c-.991,0-1.734-.044-2.345-.08a.7.7,0,0,1-.653-.7Z" fill="#0f0f0f"/>
        <path id="パス_10" data-name="パス 10" d="M270.644.5c.169.028.589.113.589.482,0,.069-.018.282-.386.379a.736.736,0,0,0-.5.4c-.089.2-.188.411-.316.683a.7.7,0,0,0,.723,1,33.61,33.61,0,0,0,4.822-1.037.694.694,0,0,1,.895.651l.039,1.354a.7.7,0,0,1-.564.712c-3.054.6-5.8.951-7.53,1.127a.7.7,0,0,0-.53.345c-.268.46-.49.837-.687,1.167a.7.7,0,0,0,.737,1.049A5.737,5.737,0,0,1,269.1,8.7a4.538,4.538,0,0,1,4.122,2.328.692.692,0,0,0,.889.321c1.672-.741,3.815-1.677,4.99-2.217a.689.689,0,0,1,.935.4l.594,1.61a.706.706,0,0,1-.455.921c-2.392.714-3.883,1.292-5.686,2.007a.714.714,0,0,0-.441.719c.066.884.066,1.776.066,2.509,0,.938-.015,1.581-.042,2.146a.7.7,0,0,1-.707.666c-.423-.009-.956-.013-1.476,0a.7.7,0,0,1-.709-.755c.076-1.078.092-1.977.086-2.637a.694.694,0,0,0-1.032-.6c-3.659,2.07-4.16,3.261-4.16,4.307,0,.879.2,2.184,5.266,2.184a32.751,32.751,0,0,0,7.593-.921.7.7,0,0,1,.855.785,11.812,11.812,0,0,0-.122,1.475.736.736,0,0,1-.558.672,39.641,39.641,0,0,1-7.18.626c-6.386,0-8.655-2.155-8.655-4.651,0-3.473,4.556-6.214,7.071-7.452a.7.7,0,0,0,.345-.885,2.27,2.27,0,0,0-2.431-1.391c-1.992,0-4.244,1.233-7.252,5.99a.693.693,0,0,1-.951.227l-1.3-.808A.708.708,0,0,1,258.6,15.2a62.307,62.307,0,0,0,5.511-7.544.705.705,0,0,0-.625-1.074c-1.153.052-1.91.068-3.188.058a.7.7,0,0,1-.691-.7V4.564a.686.686,0,0,1,.752-.7c.771.067,1.74.129,3.17.129.879,0,1.637-.017,2.194-.039a.69.69,0,0,0,.594-.394,23.284,23.284,0,0,0,1.31-3.074.7.7,0,0,1,.807-.47Z" fill="#0f0f0f"/>
        <path id="パス_11" data-name="パス 11" d="M289.679,18.289a35.117,35.117,0,0,1,5.108,4.154.707.707,0,0,1,.011,1l-1.314,1.347a.692.692,0,0,1-1.033-.053,23.412,23.412,0,0,0-4.551-4.185.706.706,0,0,1-.105-1.046l1-1.1A.69.69,0,0,1,289.679,18.289Z" fill="#0f0f0f"/>
        <g id="グループ_2" data-name="グループ 2">
          <path id="パス_12" data-name="パス 12" d="M117.608,26.313c-2.345,0-5.248-3.683-5.865-11.6a.7.7,0,0,0-.691-.655H109.4a.7.7,0,0,0-.695.7V25.326a.7.7,0,0,1-.695.7h-1.384a.7.7,0,0,1-.695-.7V14.764a.7.7,0,0,0-.695-.7h-2.017a.694.694,0,0,0-.692.645,17.052,17.052,0,0,1-4.7,10.936.69.69,0,0,1-.966.031,6.913,6.913,0,0,0-1.152-.844.709.709,0,0,1-.134-1.1A13.564,13.564,0,0,0,99.7,14.844a.705.705,0,0,0-.692-.783H95.979a.7.7,0,0,1-.695-.7V12.041a.7.7,0,0,1,.695-.7h3.148a.7.7,0,0,0,.695-.7V8.982a.7.7,0,0,0-.883-.677c-.578.164-1.079.291-1.673.415a.724.724,0,0,1-.8-.454,5.391,5.391,0,0,0-.539-1.1.708.708,0,0,1,.5-1.075,17.636,17.636,0,0,0,6.526-2.239.689.689,0,0,1,.871.1l1.34,1.4a.905.905,0,0,1,.28.595.409.409,0,0,1-.392.426.781.781,0,0,1-.333-.084.776.776,0,0,0-.609.029,10.569,10.569,0,0,1-1.07.526.708.708,0,0,0-.424.647v3.141a.7.7,0,0,0,.695.7h1.916a.7.7,0,0,0,.695-.7V4.784a.7.7,0,0,1,.752-.7l1.936.163c.589.057.757.284.757.483a.479.479,0,0,1-.3.391.7.7,0,0,0-.374.621v4.892a.7.7,0,0,0,.695.7H113.6a.7.7,0,0,1,.694.725c-.012.346-.021.755-.021,1.26,0,5.985,2.129,10.041,3.25,10.041.7,0,1.067-.642,1.435-1.725a.688.688,0,0,1,1.088-.331,3.658,3.658,0,0,0,.772.505.712.712,0,0,1,.379.839C120.816,23.963,119.861,26.313,117.608,26.313Zm.728-12.394.7.369q.336.17.336.425c0,.282-.255.349-.533.355a.7.7,0,0,0-.54.259,8.6,8.6,0,0,1-.658.737.706.706,0,0,0,.109,1.081c.653.433,1.28.9,1.756,1.274a.7.7,0,0,1,.1,1.02,7.455,7.455,0,0,0-.6.762.676.676,0,0,1-1.007.147,21.7,21.7,0,0,0-2.161-1.558.71.71,0,0,1-.2-1.022l.2-.267a.709.709,0,0,0-.127-.972l-.395-.316a.711.711,0,0,1-.021-1.086c.37-.329.7-.652.976-.948a.7.7,0,0,0-.084-1.029c-1.679-1.265-3.454-4.057-4.078-9.184a.7.7,0,0,0-.689-.626H96.987a.7.7,0,0,1-.695-.7V1.49a.7.7,0,0,1,.695-.7h16.886a.7.7,0,0,1,.694.728c-.008.192-.012.408-.012.661,0,5.673,2.493,8.906,3.445,8.906.561,0,.981-.425,1.317-2.808-.056.113-.112.2-.168.312A27.127,27.127,0,0,0,115.808,6.3a.708.708,0,0,1-.215-1.031l.473-.643a.708.708,0,0,0-.081-.933c-.18-.17-.4-.369-.629-.564a.707.707,0,0,1,.034-1.111,18.847,18.847,0,0,0,2.163-1.89.685.685,0,0,1,.9-.063l1.452,1.087a.534.534,0,0,1,.28.425c0,.142-.084.34-.476.34a1.5,1.5,0,0,1-.532-.085c-.465.489-1.09,1.092-1.671,1.6a.705.705,0,0,0,.117,1.142,26.938,26.938,0,0,1,2.362,1.507.7.7,0,0,1,.151,1c-.153.2-.328.444-.5.693a.7.7,0,0,0,.08.912,4.6,4.6,0,0,0,1.26.787.732.732,0,0,1,.393.8C120.917,12.241,120.319,13.815,118.337,13.919Z" fill="#0f0f0f"/>
          <path id="パス_13" data-name="パス 13" d="M139.426,3.438a.7.7,0,0,1-.022.936c-2.506,2.65-5.1,8.123-5.1,12.409a5.109,5.109,0,0,0,5.378,5.332c6.022,0,6.358-6.807,6.358-8.2a19.875,19.875,0,0,0-3.011-10.273.7.7,0,0,1,.261-.975l1.446-.808a.691.691,0,0,1,.941.275,28.965,28.965,0,0,0,8.16,9.38.709.709,0,0,1,.18.935c-.249.407-.547.91-.8,1.362a.66.66,0,0,1-1.056.185c-.613-.54-1.461-1.317-2.371-2.277a.693.693,0,0,0-1.194.535c.048.572.078,1.273.078,2.142,0,6.1-3.137,10.465-8.739,10.465-4.37,0-8.375-2.694-8.375-8.367a20.275,20.275,0,0,1,2.584-8.632.7.7,0,0,0-.839-.988c-.977.33-1.952.6-3.021.851a.694.694,0,0,1-.821-.476l-.515-1.672a.7.7,0,0,1,.558-.9,25.114,25.114,0,0,0,8.023-2.6.693.693,0,0,1,.879.148Zm11.164-1.52c.5.52,1.163,1.247,1.706,1.913a.708.708,0,0,1-.1.984c-.113.1-.208.185-.312.287a.689.689,0,0,1-1.031-.07c-.395-.513-.975-1.235-1.581-1.877a.711.711,0,0,1,.068-1.044l.319-.254A.685.685,0,0,1,150.59,1.918Zm2.26-1.872c.607.581,1.209,1.23,1.742,1.851a.711.711,0,0,1-.108,1.021c-.117.091-.222.179-.333.279a.692.692,0,0,1-1.017-.094,18.2,18.2,0,0,0-1.559-1.8.709.709,0,0,1,.05-1.042l.3-.252A.691.691,0,0,1,152.851.047Z" fill="#0f0f0f"/>
          <path id="パス_14" data-name="パス 14" d="M186.117,22.96v1.4a.7.7,0,0,1-.695.7H161.239a.7.7,0,0,1-.695-.7v-1.4a.7.7,0,0,1,.695-.7h12.2a.7.7,0,0,0,.657-.47,95.573,95.573,0,0,0,3.19-11.554.691.691,0,0,1,.87-.53l2.218.642c.252.085.532.142.532.4,0,.193-.063.256-.324.361a.8.8,0,0,0-.418.451c-.951,3.218-2.111,7.232-2.969,9.776a.7.7,0,0,0,.659.927h7.567A.7.7,0,0,1,186.117,22.96ZM171.775.722a.7.7,0,0,1,.72-.7l2.362.087c.168,0,.532.142.532.369a.388.388,0,0,1-.217.311.733.733,0,0,0-.315.626v3.38a.7.7,0,0,0,.695.7h8.5a.7.7,0,0,1,.695.7V7.6a.7.7,0,0,1-.695.7H162.5a.7.7,0,0,1-.695-.7V6.2a.7.7,0,0,1,.695-.7h8.582a.7.7,0,0,0,.695-.7Zm-3.72,9.934a46.128,46.128,0,0,1,2.933,9.485.706.706,0,0,1-.471.805c-.492.159-1.027.326-1.466.46a.677.677,0,0,1-.883-.543,38.611,38.611,0,0,0-2.777-9.189.708.708,0,0,1,.425-.97l1.4-.434A.692.692,0,0,1,168.055,10.656Z" fill="#0f0f0f"/>
          <path id="パス_15" data-name="パス 15" d="M191.568,7.252a.7.7,0,0,1,.552-.938,24.261,24.261,0,0,0,3.378-.791c5.686-1.644,8.543-2.353,11.708-2.353,6.526,0,9.327,4.339,9.327,8.934,0,9.76-12.544,10.876-16.374,11.064a.7.7,0,0,1-.706-.534,12.884,12.884,0,0,0-.483-1.567.7.7,0,0,1,.639-.95c4.38-.084,13.843-.755,13.843-7.957,0-2.014-.812-6.3-6.639-6.3-3.038,0-8.865,1.643-13.477,3.977a.692.692,0,0,1-.967-.382Z" fill="#0f0f0f"/>
          <path id="パス_16" data-name="パス 16" d="M235.192,1.127a.7.7,0,0,1,.695.7V22.625c0,2.637-.876,3.607-5.119,3.432a.733.733,0,0,1-.65-.589,8.188,8.188,0,0,0-.424-1.555.7.7,0,0,1,.719-.95,13.318,13.318,0,0,0,1.441.088c1.093,0,1.093-.51,1.093-1.418V4.639a.7.7,0,0,0-.695-.7h-7.687a.7.7,0,0,1-.695-.7V1.83a.7.7,0,0,1,.695-.7ZM224.537,18.216a49.655,49.655,0,0,0,6.257-3.86.691.691,0,0,1,1.084.509c.042.4.1.8.171,1.189a.7.7,0,0,1-.243.681c-1.864,1.486-4.467,3.223-5.516,3.892a.8.8,0,0,0-.319.539c-.039.466-.089.581-.365.581a.394.394,0,0,1-.337-.256l-1.062-2.352A.707.707,0,0,1,224.537,18.216Zm3.62-12.338a28.679,28.679,0,0,1,3.336,4.626.71.71,0,0,1-.26.951,13.353,13.353,0,0,0-1.268.8.689.689,0,0,1-1-.212,35.181,35.181,0,0,0-3.067-4.367.7.7,0,0,1,.129-1.015l1.209-.885A.687.687,0,0,1,228.158,5.878Zm20-4.751a.7.7,0,0,1,.695.7V22.568c0,1.716-.362,3.614-5.027,3.512a.725.725,0,0,1-.674-.563,8.379,8.379,0,0,0-.495-1.7.7.7,0,0,1,.7-.959c.391.033.785.053,1.152.053,1.288,0,1.372-.4,1.372-1.446V4.639a.7.7,0,0,0-.695-.7h-7.378a.7.7,0,0,1-.695-.7V1.83a.7.7,0,0,1,.695-.7ZM237.653,18.951a.7.7,0,0,1,.309-.891c.985-.523,2.03-1.217,3.134-1.93.42-.284,1.8-1.335,2.745-2.046a.69.69,0,0,1,1.081.375c.094.347.2.725.324,1.143a.7.7,0,0,1-.247.758c-1.054.8-2.486,1.932-3.455,2.662-1.037.77-1.487,1.1-1.894,1.381a.683.683,0,0,0-.285.492c-.036.331-.12.537-.425.537-.2,0-.336-.2-.392-.34Zm2.824-13.494a37.229,37.229,0,0,1,3.474,4.736.709.709,0,0,1-.255.994,13.04,13.04,0,0,0-1.3.821.69.69,0,0,1-.993-.23A45.779,45.779,0,0,0,238.269,7.2a.707.707,0,0,1,.14-1l1.143-.838A.685.685,0,0,1,240.477,5.457Z" fill="#0f0f0f"/>
        </g>
      </g>
    </g>
    <path id="Color_Overlay" data-name="Color Overlay" d="M119.45,292a.716.716,0,0,1-.687-.566,7.906,7.906,0,0,0-.379-1.412.7.7,0,0,1,.679-.931c.119,0,.24,0,.369,0,2.017,0,2.212-.311,2.212-1.9v-1.668a.691.691,0,0,0-1.109-.559,48.054,48.054,0,0,1-12.693,6.323.692.692,0,0,1-.863-.4,4.964,4.964,0,0,0-.69-1.225.7.7,0,0,1,.379-1.105,39.6,39.6,0,0,0,9.474-3.89.706.706,0,0,0-.45-1.307c-2.406.339-3.424.461-4.917.629-.788.072-2.595.289-3.6.422a.669.669,0,0,0-.539.4.52.52,0,0,1-.486.374c-.252,0-.309-.17-.364-.4l-.472-2.22a.7.7,0,0,1,.637-.85c.484-.028,1.126-.076,2.663-.177a.7.7,0,0,0,.644-.687v-11.73a.7.7,0,0,1,.695-.7h3.012a.691.691,0,0,0,.63-.407c.219-.479.552-1.256.841-2.083a.693.693,0,0,1,.719-.464l2.7.259c.252.029.448.057.448.312,0,.221-.063.293-.588.51a.706.706,0,0,0-.388.4c-.057.149-.12.307-.2.486a.7.7,0,0,0,.635.986h6.09a.7.7,0,0,1,.694.7v5.9a.694.694,0,0,0,1.263.407c.371-.538.641-.977.861-1.36a.687.687,0,0,1,1-.219l1.894,1.342a.725.725,0,0,1,.308.482c0,.249-.143.3-.542.31a.7.7,0,0,0-.559.3,37.926,37.926,0,0,1-4.023,4.828.719.719,0,0,0-.2.491v6.836c0,2.9-1.481,3.436-5.087,3.557Zm-7.189-12.61V280.5a.7.7,0,0,0,.756.7c3.55-.3,4.361-.383,8-.777a.72.72,0,0,0,.623-.7v-.338a.7.7,0,0,0-.694-.7h-7.995A.7.7,0,0,0,112.261,279.39Zm0-4.027v.494a.7.7,0,0,0,.695.7h7.995a.7.7,0,0,0,.694-.7v-.494a.7.7,0,0,0-.694-.7h-7.995A.7.7,0,0,0,112.261,275.362Zm0-3.857v.436a.7.7,0,0,0,.695.7h7.995a.7.7,0,0,0,.694-.7V271.5a.7.7,0,0,0-.694-.7h-7.995A.7.7,0,0,0,112.261,271.5Zm102.014,19.712a7.629,7.629,0,0,0-1.147-1.02.71.71,0,0,1-.017-1.131c4.16-3.245,4.72-6.454,4.644-12.083a.687.687,0,0,0-.755-.689,56.159,56.159,0,0,1-5.746.249.7.7,0,0,1-.681-.643l-.127-1.52a.7.7,0,0,1,.76-.759,18.9,18.9,0,0,0,1.913.075c.673,0,2.166-.022,3.909-.187a.7.7,0,0,0,.634-.729c-.052-1.291-.183-3.656-.4-5.6a.7.7,0,0,1,.772-.776l2.172.263c.588.057.756.086.756.312a.337.337,0,0,1-.172.293.711.711,0,0,0-.329.6c.018,2.581.023,3.516.036,4.3a.7.7,0,0,0,.844.674,23.682,23.682,0,0,0,2.852-.791.7.7,0,0,1,.925.666c0,.468.008.86.038,1.364a.7.7,0,0,1-.46.709,24.174,24.174,0,0,1-3.589.9.707.707,0,0,0-.565.695c0,4.619-.049,6.893-1.2,9.507a14.736,14.736,0,0,1-4.111,5.41.667.667,0,0,1-.427.155A.706.706,0,0,1,214.275,291.217Zm24.808-4.589c0-2.3,1.933-3.97,4.677-3.97.316,0,4.5,0,5.687,4.023a.661.661,0,0,0,1.033.421,4.783,4.783,0,0,0,2.44-4.274c0-2.78-1.989-4.964-5.714-4.964-4.531,0-7.4,2.5-11.558,6.861a.691.691,0,0,1-.987.019l-1.189-1.174a.707.707,0,0,1,.053-1.054,153.9,153.9,0,0,0,11.306-10.867.7.7,0,0,0-.607-1.177c-2.458.374-5.44.633-7.2.766a.694.694,0,0,1-.735-.59l-.24-1.508a.7.7,0,0,1,.686-.815c3.018.02,9.26-.365,12.941-1.534a.692.692,0,0,1,.769.24l.841,1.114a.706.706,0,0,1-.091.953c-1.184,1.05-3.79,3.471-5.645,5.227a.7.7,0,0,0,.57,1.209,11.711,11.711,0,0,1,1.812-.138c4.006,0,7.87,2.382,7.87,7.175,0,6.013-5.909,8.6-10.28,8.6C241.912,291.166,239.082,289.52,239.082,286.628Zm2.633,0c0,1.759,2.3,2.241,3.417,2.241a7.418,7.418,0,0,0,1.361-.128.707.707,0,0,0,.554-.843,3.217,3.217,0,0,0-1.019-1.808,4.082,4.082,0,0,0-2.578-1.021A1.535,1.535,0,0,0,241.716,286.628Zm22.77.71c0-2.979,3.384-5.044,6.392-2.789a.765.765,0,0,1,.169.176c2.193,3.126-.021,6.385-2.836,6.385A3.766,3.766,0,0,1,264.486,287.338Zm1.485,0a2.243,2.243,0,0,0,2.24,2.268,2.338,2.338,0,0,0,1.776-3.785.766.766,0,0,0-.205-.215,2.739,2.739,0,0,0-1.57-.538A2.262,2.262,0,0,0,265.971,287.338Zm-126.707,2.725a28.449,28.449,0,0,1-1.516-9.9,57.481,57.481,0,0,1,1.6-12.776.7.7,0,0,1,.926-.518l2.209.843c.391.141.616.228.616.482,0,.176-.131.255-.311.294a.708.708,0,0,0-.5.49,39.9,39.9,0,0,0-1.736,11.808c0,.332,0,.633.011.908a.693.693,0,0,0,1.331.257l.084-.194a.693.693,0,0,1,1.152-.188,4.736,4.736,0,0,0,.484.453.711.711,0,0,1,.209.834,18.88,18.88,0,0,0-1.709,6.547.684.684,0,0,1-.482.658l-1.518.442a.69.69,0,0,1-.847-.439Zm64.8-.069C202.052,285.37,202,279.345,202,278.006a47.583,47.583,0,0,1,1.2-10.561.7.7,0,0,1,.856-.515l2.366.637c.308.086.448.113.448.34a.377.377,0,0,1-.3.348.736.736,0,0,0-.467.475,36.511,36.511,0,0,0-1.255,9.841,31.214,31.214,0,0,0,.213,3.806.694.694,0,0,0,1.342.163l.041-.113c.237-.645.509-1.291.756-1.842a.665.665,0,0,1,1.041-.275,7.06,7.06,0,0,0,.82.524.708.708,0,0,1,.28.94,28.725,28.725,0,0,0-2.65,7.726.69.69,0,0,1-.532.583l-1.319.3a.715.715,0,0,1-.157.018A.688.688,0,0,1,204.059,289.993Zm-28.017-1.655a13.105,13.105,0,0,0-.482-1.567.7.7,0,0,1,.638-.95c4.381-.084,13.844-.755,13.844-7.957,0-2.014-.813-6.3-6.638-6.3-3.038,0-8.866,1.643-13.478,3.977a.692.692,0,0,1-.967-.383l-.8-2.207a.7.7,0,0,1,.552-.938,24.316,24.316,0,0,0,3.379-.791c5.686-1.644,8.544-2.354,11.709-2.354,6.526,0,9.327,4.339,9.327,8.934,0,9.76-12.543,10.876-16.374,11.064h-.035A.7.7,0,0,1,176.042,288.338Zm-29.863-3.753a9.707,9.707,0,0,1,.86-3.722.7.7,0,0,1,.779-.421l1.1.222a.7.7,0,0,1,.5.967,5.285,5.285,0,0,0-.493,2.1c0,1.759,2.017,2.1,4.986,2.1a30.061,30.061,0,0,0,5.931-.54.7.7,0,0,1,.828.776c-.047.413-.085.916-.094,1.516a.7.7,0,0,1-.608.687,54.06,54.06,0,0,1-5.973.342C150.577,288.614,146.179,288.273,146.179,284.585Zm1.717-11.935a.7.7,0,0,1-.652-.7V270.54a.7.7,0,0,1,.744-.7c.591.044,1.3.085,2.281.085a35.16,35.16,0,0,0,7.957-.724.683.683,0,0,1,.852.6c.053.468.113,1.024.161,1.458a.7.7,0,0,1-.564.773,47.11,47.11,0,0,1-8.434.7C149.25,272.731,148.506,272.686,147.9,272.651Zm3.847-31.935a.7.7,0,0,0-.69-.655H149.4a.7.7,0,0,0-.695.7v10.562a.7.7,0,0,1-.695.7h-1.383a.7.7,0,0,1-.695-.7V240.764a.7.7,0,0,0-.695-.7h-2.016a.7.7,0,0,0-.692.645,17.055,17.055,0,0,1-4.7,10.935.691.691,0,0,1-.966.031,6.914,6.914,0,0,0-1.153-.843.71.71,0,0,1-.134-1.105,13.565,13.565,0,0,0,4.133-8.878.706.706,0,0,0-.692-.783h-3.032a.7.7,0,0,1-.695-.7V238.04a.7.7,0,0,1,.695-.7h3.148a.7.7,0,0,0,.694-.7v-1.652a.7.7,0,0,0-.883-.677c-.578.165-1.078.292-1.673.416a.724.724,0,0,1-.8-.454,5.4,5.4,0,0,0-.539-1.1.708.708,0,0,1,.5-1.076,17.661,17.661,0,0,0,6.527-2.238.69.69,0,0,1,.871.095l1.339,1.4a.905.905,0,0,1,.281.595.409.409,0,0,1-.392.426.774.774,0,0,1-.333-.084.773.773,0,0,0-.608.03,10.845,10.845,0,0,1-1.071.527.706.706,0,0,0-.424.647v3.14a.7.7,0,0,0,.695.7h1.916a.7.7,0,0,0,.695-.7v-5.849a.7.7,0,0,1,.752-.7l1.936.163c.589.058.757.284.757.483a.481.481,0,0,1-.3.392.7.7,0,0,0-.374.621v4.891a.7.7,0,0,0,.695.7H153.6a.7.7,0,0,1,.694.725c-.013.346-.022.755-.022,1.26,0,5.984,2.129,10.04,3.25,10.04.7,0,1.066-.642,1.435-1.725a.688.688,0,0,1,1.088-.331,3.664,3.664,0,0,0,.772.506.712.712,0,0,1,.379.839c-.382,1.312-1.337,3.661-3.59,3.661C155.263,252.312,152.36,248.63,151.743,240.716ZM76.652,251.867a5.932,5.932,0,0,0-.839-.987.706.706,0,0,1,.194-1.141,6.666,6.666,0,0,0,4.047-6.143.694.694,0,0,0-1.063-.638,26.494,26.494,0,0,1-4.231,2.237.693.693,0,0,1-.849-.277,7.851,7.851,0,0,0-.843-1.082.7.7,0,0,1,.291-1.147,19.457,19.457,0,0,0,6.626-3.734.707.707,0,0,0-.446-1.247H75.956a.7.7,0,0,1-.695-.7V227.66a.7.7,0,0,1,.695-.7H95.351a.7.7,0,0,1,.695.7V237a.7.7,0,0,1-.695.7H91.3a.705.705,0,0,0-.44,1.25,22.5,22.5,0,0,0,6.866,3.685.708.708,0,0,1,.328,1.13,8.847,8.847,0,0,0-.821,1.148.717.717,0,0,1-.836.3,28.7,28.7,0,0,1-4.153-2.089.693.693,0,0,0-1.047.606v7.648a.7.7,0,0,1-.695.7H88.981a.7.7,0,0,1-.694-.7v-9.274a.7.7,0,0,1,.757-.7l.783.072a19.3,19.3,0,0,1-3.436-3.49.688.688,0,0,0-.553-.282h-.752a.7.7,0,0,0-.537.262,22.817,22.817,0,0,1-2.147,2.3.705.705,0,0,0,.393,1.217l.2.023c.252.028.644.057.644.4a.444.444,0,0,1-.329.435.709.709,0,0,0-.459.644c-.04,2.017-.479,6.854-5.295,9.148a.674.674,0,0,1-.291.065A.737.737,0,0,1,76.652,251.867Zm10.515-17.825v.692a.7.7,0,0,0,.695.7h4.521a.7.7,0,0,0,.695-.7v-.692a.7.7,0,0,0-.695-.7H87.862A.7.7,0,0,0,87.167,234.041Zm-8.907,0v.692a.7.7,0,0,0,.695.7h4.521a.7.7,0,0,0,.695-.7v-.692a.7.7,0,0,0-.695-.7H78.954A.7.7,0,0,0,78.259,234.041Zm8.907-4.112v.635a.7.7,0,0,0,.695.7h4.521a.7.7,0,0,0,.695-.7v-.635a.7.7,0,0,0-.695-.7H87.862A.7.7,0,0,0,87.167,229.929Zm-8.907,0v.635a.7.7,0,0,0,.695.7h4.521a.7.7,0,0,0,.695-.7v-.635a.7.7,0,0,0-.695-.7H78.954A.7.7,0,0,0,78.259,229.929ZM44.784,252.085a.7.7,0,0,1-.695-.7V236.707a.7.7,0,0,0-.695-.7h-2.7a.7.7,0,0,1-.695-.7v-1.316a.7.7,0,0,1,.695-.7h2.7a.7.7,0,0,0,.695-.7v-4.984a.7.7,0,0,1,.74-.7l2.285.15c.168,0,.645.028.645.4,0,.151-.139.263-.314.346a.7.7,0,0,0-.388.63v4.163a.7.7,0,0,0,.695.7h3.176a.7.7,0,0,0,.695-.7v-5.869a.7.7,0,0,1,.735-.7l2.15.126c.224,0,.671.057.671.369,0,.153-.151.275-.332.367a.693.693,0,0,0-.368.62v5.088a.7.7,0,0,0,.695.7h2.953a.7.7,0,0,0,.695-.7v-5.131a.7.7,0,0,1,.734-.7l2.122.127c.224,0,.616.028.616.34,0,.159-.142.285-.325.385a.709.709,0,0,0-.348.625v4.356a.7.7,0,0,0,.695.7h2.952a.7.7,0,0,1,.695.7V235.3a.7.7,0,0,1-.695.7H62.319a.7.7,0,0,0-.695.7v8.18a.7.7,0,0,1-.695.7H59.423a.6.6,0,0,1-.6-.607v-.091a.6.6,0,0,0-.6-.607H55.175a.7.7,0,0,0-.695.7v.239a.7.7,0,0,1-.694.7H52.319a.7.7,0,0,1-.695-.7v-8.52a.7.7,0,0,0-.695-.7H47.753a.7.7,0,0,0-.695.7v10.647a.7.7,0,0,0,.695.7H63.338a.7.7,0,0,1,.695.7v1.345a.7.7,0,0,1-.695.7H47.658a.6.6,0,0,0-.6.607v.062a.6.6,0,0,1-.6.607Zm9.7-15.377v4.181a.7.7,0,0,0,.695.7h2.953a.7.7,0,0,0,.695-.7v-4.181a.7.7,0,0,0-.695-.7H55.175A.7.7,0,0,0,54.481,236.707ZM283.828,252.08a.726.726,0,0,1-.674-.562,8.36,8.36,0,0,0-.494-1.7.7.7,0,0,1,.7-.959c.391.033.785.053,1.152.053,1.289,0,1.372-.4,1.372-1.445V230.639a.7.7,0,0,0-.695-.7h-7.378a.7.7,0,0,1-.694-.7v-1.4a.7.7,0,0,1,.694-.7H288.16a.7.7,0,0,1,.695.7v20.738c0,1.67-.343,3.515-4.672,3.515C284.067,252.084,283.949,252.083,283.828,252.08Zm-13.061-.023a.734.734,0,0,1-.65-.589,8.154,8.154,0,0,0-.425-1.555.7.7,0,0,1,.719-.95,13.287,13.287,0,0,0,1.441.088c1.094,0,1.094-.51,1.094-1.418V230.639a.7.7,0,0,0-.695-.7h-7.687a.7.7,0,0,1-.694-.7v-1.4a.7.7,0,0,1,.694-.7h10.628a.7.7,0,0,1,.694.7v20.794c0,2.44-.749,3.452-4.22,3.452C271.384,252.077,271.085,252.071,270.767,252.058Zm32.511-5.475c0-3.473,4.556-6.214,7.071-7.452a.7.7,0,0,0,.345-.885,2.269,2.269,0,0,0-2.43-1.391c-1.993,0-4.244,1.233-7.252,5.99a.693.693,0,0,1-.951.227l-1.3-.808a.707.707,0,0,1-.156-1.066,62.446,62.446,0,0,0,5.511-7.544.705.705,0,0,0-.625-1.075c-1.153.051-1.91.068-3.188.058a.7.7,0,0,1-.691-.7v-1.37a.686.686,0,0,1,.751-.7c.771.067,1.741.129,3.17.129.879,0,1.638-.017,2.194-.039a.691.691,0,0,0,.594-.393,23.218,23.218,0,0,0,1.31-3.074.694.694,0,0,1,.807-.469l2.209.487c.168.029.589.113.589.482,0,.068-.018.283-.386.379a.734.734,0,0,0-.5.4c-.089.2-.188.411-.317.684a.7.7,0,0,0,.723,1,33.708,33.708,0,0,0,4.822-1.038.694.694,0,0,1,.895.651l.039,1.354a.7.7,0,0,1-.563.713c-3.054.6-5.8.951-7.529,1.127a.7.7,0,0,0-.53.345c-.268.46-.49.837-.687,1.167a.7.7,0,0,0,.736,1.048,5.723,5.723,0,0,1,1.167-.116,4.538,4.538,0,0,1,4.123,2.328.692.692,0,0,0,.888.321c1.672-.742,3.815-1.677,4.991-2.218a.69.69,0,0,1,.935.4l.594,1.61a.707.707,0,0,1-.454.921c-2.392.714-3.883,1.292-5.686,2.007a.714.714,0,0,0-.441.719c.066.884.066,1.776.066,2.509,0,.938-.014,1.58-.041,2.146a.7.7,0,0,1-.708.666c-.422-.009-.956-.014-1.476,0a.7.7,0,0,1-.708-.754c.076-1.078.093-1.977.086-2.638a.694.694,0,0,0-1.032-.6c-3.658,2.071-4.16,3.262-4.16,4.307,0,.879.2,2.184,5.267,2.184a32.749,32.749,0,0,0,7.592-.921.7.7,0,0,1,.856.785,11.744,11.744,0,0,0-.122,1.475.736.736,0,0,1-.558.672,39.654,39.654,0,0,1-7.18.625C305.547,251.234,303.277,249.08,303.277,246.583Zm-102.039,4.482a.7.7,0,0,1-.695-.7v-1.4a.7.7,0,0,1,.695-.7h12.2a.7.7,0,0,0,.657-.47,95.65,95.65,0,0,0,3.19-11.554.69.69,0,0,1,.869-.529l2.219.642c.251.085.531.142.531.4,0,.193-.063.257-.324.362a.8.8,0,0,0-.418.451c-.951,3.218-2.111,7.232-2.969,9.776a.7.7,0,0,0,.659.927h7.567a.7.7,0,0,1,.695.7v1.4a.7.7,0,0,1-.695.7Zm131.213-.329a23.453,23.453,0,0,0-4.551-4.185.706.706,0,0,1-.105-1.046l1-1.1a.689.689,0,0,1,.887-.118,35.083,35.083,0,0,1,5.108,4.154.707.707,0,0,1,.012,1l-1.315,1.347A.676.676,0,0,1,333,251,.707.707,0,0,1,332.451,250.736Zm-160.9-8.237a20.275,20.275,0,0,1,2.584-8.633.7.7,0,0,0-.839-.987c-.977.33-1.951.6-3.021.851a.694.694,0,0,1-.821-.475l-.516-1.672a.7.7,0,0,1,.558-.9,25.121,25.121,0,0,0,8.023-2.6.693.693,0,0,1,.879.148l1.022,1.211a.7.7,0,0,1-.023.936c-2.506,2.65-5.1,8.123-5.1,12.409a5.109,5.109,0,0,0,5.378,5.332c6.023,0,6.358-6.807,6.358-8.2a19.878,19.878,0,0,0-3.011-10.273.705.705,0,0,1,.261-.975l1.447-.808a.691.691,0,0,1,.94.275,28.958,28.958,0,0,0,8.159,9.381.709.709,0,0,1,.181.935c-.249.407-.548.91-.8,1.362a.66.66,0,0,1-1.057.185c-.613-.54-1.461-1.317-2.372-2.277a.693.693,0,0,0-1.194.535c.048.572.078,1.273.078,2.143,0,6.1-3.137,10.465-8.739,10.465C175.56,250.866,171.555,248.172,171.555,242.5Zm-64.529,7.86a28.477,28.477,0,0,1-1.516-9.9,57.437,57.437,0,0,1,1.6-12.776.694.694,0,0,1,.925-.518l2.208.843c.392.142.616.227.616.482,0,.177-.131.255-.311.3a.7.7,0,0,0-.5.49,39.9,39.9,0,0,0-1.736,11.808c0,.332,0,.633.011.908a.693.693,0,0,0,1.331.257l.084-.194a.693.693,0,0,1,1.152-.188,4.638,4.638,0,0,0,.484.453.71.71,0,0,1,.209.834,18.861,18.861,0,0,0-1.709,6.547.687.687,0,0,1-.483.659l-1.518.441a.689.689,0,0,1-.846-.438Zm132.427-1.725a12.923,12.923,0,0,0-.483-1.567.7.7,0,0,1,.639-.95c4.38-.084,13.844-.755,13.844-7.957,0-2.014-.813-6.3-6.638-6.3-3.038,0-8.866,1.643-13.478,3.977a.691.691,0,0,1-.967-.382l-.8-2.207a.7.7,0,0,1,.553-.938,24.314,24.314,0,0,0,3.378-.79c5.686-1.645,8.544-2.354,11.708-2.354,6.527,0,9.328,4.339,9.328,8.933,0,9.76-12.544,10.876-16.375,11.065h-.031A.7.7,0,0,1,239.453,248.634Zm-125.511-3.752a9.707,9.707,0,0,1,.86-3.722.7.7,0,0,1,.78-.422l1.1.222a.7.7,0,0,1,.5.967,5.308,5.308,0,0,0-.493,2.1c0,1.759,2.017,2.1,4.987,2.1a30.108,30.108,0,0,0,5.93-.539.7.7,0,0,1,.828.776c-.047.413-.086.916-.094,1.515a.7.7,0,0,1-.608.687,54.067,54.067,0,0,1-5.973.341C118.34,248.909,113.942,248.568,113.942,244.882Zm151.329,2.609-1.063-2.352a.706.706,0,0,1,.329-.923,49.617,49.617,0,0,0,6.257-3.861.692.692,0,0,1,1.085.509c.042.4.1.8.172,1.189a.7.7,0,0,1-.244.681c-1.864,1.486-4.467,3.223-5.515,3.892a.8.8,0,0,0-.319.539c-.04.466-.089.581-.365.581A.393.393,0,0,1,265.271,247.491Zm-57.1-.627a38.626,38.626,0,0,0-2.777-9.19.708.708,0,0,1,.425-.97l1.4-.435a.693.693,0,0,1,.838.387,46.092,46.092,0,0,1,2.933,9.485.708.708,0,0,1-.471.805c-.491.158-1.027.325-1.466.46a.733.733,0,0,1-.216.033A.675.675,0,0,1,208.168,246.864Zm70.379.229-.895-2.142a.7.7,0,0,1,.309-.891c.986-.523,2.03-1.217,3.135-1.93.42-.283,1.8-1.335,2.745-2.046a.69.69,0,0,1,1.081.375c.094.347.2.725.324,1.143a.7.7,0,0,1-.247.758c-1.054.8-2.487,1.933-3.455,2.662-1.038.77-1.487,1.1-1.895,1.382a.683.683,0,0,0-.285.492c-.036.331-.121.537-.426.537C278.743,247.434,278.6,247.235,278.547,247.093Zm-120.553-.746a21.873,21.873,0,0,0-2.161-1.558.709.709,0,0,1-.2-1.021l.2-.266a.709.709,0,0,0-.126-.972l-.4-.316a.711.711,0,0,1-.022-1.086c.371-.329.7-.652.977-.949a.7.7,0,0,0-.084-1.029c-1.679-1.266-3.454-4.057-4.078-9.185a.7.7,0,0,0-.689-.626H136.986a.7.7,0,0,1-.694-.7V227.49a.7.7,0,0,1,.694-.7h16.887a.7.7,0,0,1,.694.728c-.008.192-.013.408-.013.661,0,5.673,2.494,8.906,3.445,8.906.561,0,.981-.425,1.317-2.807-.056.113-.112.2-.167.311a27.292,27.292,0,0,0-3.341-2.284.708.708,0,0,1-.215-1.031l.473-.643a.708.708,0,0,0-.08-.932c-.18-.171-.4-.369-.629-.565a.707.707,0,0,1,.034-1.111,18.994,18.994,0,0,0,2.163-1.889.691.691,0,0,1,.183-.131h.6a.652.652,0,0,1,.112.068l1.453,1.087a.533.533,0,0,1,.28.425c0,.142-.084.341-.476.341a1.5,1.5,0,0,1-.532-.085c-.465.49-1.09,1.092-1.671,1.6a.706.706,0,0,0,.117,1.142,26.746,26.746,0,0,1,2.362,1.507.7.7,0,0,1,.151,1c-.153.205-.328.445-.5.693a.7.7,0,0,0,.08.913,4.614,4.614,0,0,0,1.26.787.73.73,0,0,1,.393.8c-.45,1.966-1.049,3.539-3.031,3.642l.7.369q.336.17.337.425c0,.283-.256.35-.533.355a.7.7,0,0,0-.54.259,8.673,8.673,0,0,1-.658.738.706.706,0,0,0,.109,1.081c.653.433,1.28.9,1.756,1.273a.7.7,0,0,1,.1,1.02,7.43,7.43,0,0,0-.6.762.675.675,0,0,1-1.007.147Zm110.965-8.3a35.234,35.234,0,0,0-3.066-4.367.7.7,0,0,1,.129-1.015l1.21-.886a.687.687,0,0,1,.925.1,28.628,28.628,0,0,1,3.336,4.626.709.709,0,0,1-.261.95,13.456,13.456,0,0,0-1.267.8.677.677,0,0,1-.4.134A.7.7,0,0,1,268.96,238.045Zm12.448-.266a45.835,45.835,0,0,0-3.139-4.581.707.707,0,0,1,.14-1l1.143-.839a.686.686,0,0,1,.925.1,37.332,37.332,0,0,1,3.474,4.736.709.709,0,0,1-.256.994,13.066,13.066,0,0,0-1.3.822.684.684,0,0,1-.39.122A.7.7,0,0,1,281.408,237.778ZM202.5,234.3a.7.7,0,0,1-.694-.7v-1.4a.7.7,0,0,1,.694-.7h8.582a.7.7,0,0,0,.694-.7v-4.07a.7.7,0,0,1,.72-.7l2.362.087c.168,0,.533.141.533.368a.389.389,0,0,1-.217.311.733.733,0,0,0-.316.626v3.38a.7.7,0,0,0,.695.7h8.5a.7.7,0,0,1,.694.7v1.4a.7.7,0,0,1-.694.7Zm-86.839-1.356a.7.7,0,0,1-.653-.7v-1.409a.7.7,0,0,1,.745-.7c.59.043,1.3.085,2.28.085a35.157,35.157,0,0,0,7.957-.725.683.683,0,0,1,.852.6c.053.468.113,1.025.162,1.458a.7.7,0,0,1-.565.773,47.11,47.11,0,0,1-8.434.7C117.013,233.026,116.269,232.982,115.659,232.946Zm75.2-1.914c-.4-.513-.976-1.235-1.581-1.877a.712.712,0,0,1,.068-1.045l.319-.254a.687.687,0,0,1,.927.062c.5.52,1.163,1.247,1.706,1.913a.708.708,0,0,1-.1.983c-.113.1-.209.185-.312.287a.7.7,0,0,1-.487.2A.681.681,0,0,1,190.857,231.032Zm2.277-1.928a18.267,18.267,0,0,0-1.559-1.8.709.709,0,0,1,.049-1.042l.3-.252.011-.008h.858c.018.014.036.031.053.047.607.581,1.21,1.229,1.742,1.851a.71.71,0,0,1-.108,1.021c-.117.091-.222.179-.333.279a.692.692,0,0,1-1.017-.094Z" fill="#fff"/>
  </g>
</svg>
