<svg xmlns="http://www.w3.org/2000/svg" width="527" height="117" viewBox="0 0 527 117">
  <path id="Color_Overlay" data-name="Color Overlay" d="M125.825,460a13.853,13.853,0,0,0-.676-2.5,1.237,1.237,0,0,1,1.212-1.651c.212.006.43.008.659.008,3.6,0,3.953-.552,3.953-3.367v-2.957a1.235,1.235,0,0,0-1.98-.992c-7.554,5.684-17.424,9.409-22.674,11.21a1.239,1.239,0,0,1-1.543-.716,8.722,8.722,0,0,0-1.234-2.171,1.243,1.243,0,0,1,.678-1.959,71.037,71.037,0,0,0,16.924-6.9,1.25,1.25,0,0,0-.8-2.317c-4.3.6-6.116.818-8.785,1.115-1.408.129-4.636.513-6.424.748a1.2,1.2,0,0,0-.964.7.925.925,0,0,1-.868.662c-.45,0-.551-.3-.651-.7l-.842-3.935a1.244,1.244,0,0,1,1.139-1.507c.867-.049,2.013-.134,4.759-.315a1.246,1.246,0,0,0,1.149-1.218V420.44A1.241,1.241,0,0,1,110.1,419.2h5.381a1.236,1.236,0,0,0,1.126-.721c.389-.85.985-2.227,1.5-3.694a1.238,1.238,0,0,1,1.284-.822l4.828.46c.449.049.8.1.8.553,0,.392-.113.52-1.05.905a1.255,1.255,0,0,0-.692.707c-.1.265-.215.545-.355.863a1.246,1.246,0,0,0,1.135,1.747h10.878a1.244,1.244,0,0,1,1.241,1.247v10.468a1.24,1.24,0,0,0,2.254.72c.663-.953,1.146-1.733,1.54-2.41a1.231,1.231,0,0,1,1.779-.388l3.385,2.38a1.28,1.28,0,0,1,.549.855c0,.441-.254.53-.967.548a1.245,1.245,0,0,0-1,.527,67.239,67.239,0,0,1-7.189,8.561,1.272,1.272,0,0,0-.354.87v12.118c0,5.142-2.647,6.091-9.086,6.305h-.038A1.278,1.278,0,0,1,125.825,460Zm-11.615-21.349v1.974a1.249,1.249,0,0,0,1.352,1.241c6.341-.527,7.789-.678,14.3-1.376a1.28,1.28,0,0,0,1.113-1.24v-.6a1.244,1.244,0,0,0-1.24-1.247H115.452A1.244,1.244,0,0,0,114.211,438.647Zm0-7.141v.875a1.244,1.244,0,0,0,1.241,1.247h14.281a1.244,1.244,0,0,0,1.24-1.247v-.875a1.243,1.243,0,0,0-1.24-1.247H115.452A1.244,1.244,0,0,0,114.211,431.506Zm0-6.838v.774a1.244,1.244,0,0,0,1.241,1.247h14.281a1.244,1.244,0,0,0,1.24-1.247v-.774a1.244,1.244,0,0,0-1.24-1.247H115.452A1.244,1.244,0,0,0,114.211,424.668Zm182.241,34.944A13.58,13.58,0,0,0,294.4,457.8a1.252,1.252,0,0,1-.029-2.005c7.43-5.751,8.429-11.441,8.294-21.421a1.221,1.221,0,0,0-1.348-1.22,101.327,101.327,0,0,1-10.264.441,1.241,1.241,0,0,1-1.215-1.141l-.228-2.695a1.244,1.244,0,0,1,1.358-1.346,33.813,33.813,0,0,0,3.417.134c1.2,0,3.87-.04,6.981-.332a1.247,1.247,0,0,0,1.133-1.293c-.094-2.287-.326-6.48-.714-9.935a1.239,1.239,0,0,1,1.378-1.374l3.881.465c1.05.1,1.352.151,1.352.553a.6.6,0,0,1-.309.521,1.255,1.255,0,0,0-.587,1.065c.032,4.576.041,6.233.064,7.615a1.243,1.243,0,0,0,1.508,1.2,42.678,42.678,0,0,0,5.1-1.4,1.241,1.241,0,0,1,1.653,1.179c0,.83.014,1.526.068,2.419a1.251,1.251,0,0,1-.823,1.257,43.267,43.267,0,0,1-6.411,1.6,1.251,1.251,0,0,0-1.01,1.23c-.005,8.189-.087,12.22-2.153,16.853a26.161,26.161,0,0,1-7.343,9.59,1.2,1.2,0,0,1-.763.275A1.27,1.27,0,0,1,296.452,459.612Zm44.318-8.136c0-4.072,3.453-7.038,8.356-7.038.563,0,8.036,0,10.159,7.132a1.184,1.184,0,0,0,1.847.747,8.473,8.473,0,0,0,4.358-7.577c0-4.928-3.553-8.8-10.208-8.8-8.095,0-13.219,4.427-20.647,12.163a1.242,1.242,0,0,1-1.764.033l-2.124-2.082a1.245,1.245,0,0,1,.1-1.867c4.82-3.829,15.3-14.053,20.2-19.265a1.245,1.245,0,0,0-1.084-2.088c-4.39.664-9.717,1.122-12.857,1.359a1.239,1.239,0,0,1-1.313-1.045l-.43-2.675a1.237,1.237,0,0,1,1.226-1.444c5.39.035,16.541-.649,23.118-2.72a1.245,1.245,0,0,1,1.373.426l1.5,1.976a1.245,1.245,0,0,1-.162,1.689c-2.114,1.862-6.77,6.153-10.083,9.266a1.244,1.244,0,0,0,1.017,2.143,21.059,21.059,0,0,1,3.236-.244c7.156,0,14.061,4.224,14.061,12.72,0,10.66-10.558,15.235-18.364,15.235C345.823,459.521,340.77,456.6,340.77,451.476Zm4.7,0c0,3.118,4.1,3.973,6.1,3.973a13.358,13.358,0,0,0,2.431-.227,1.254,1.254,0,0,0,.992-1.495,5.685,5.685,0,0,0-1.821-3.2,7.323,7.323,0,0,0-4.6-1.811C347.125,448.711,345.474,449.365,345.474,451.476Zm40.676,1.258c0-5.28,6.046-8.941,11.419-4.944a1.379,1.379,0,0,1,.3.311c3.917,5.542-.039,11.319-5.066,11.319A6.7,6.7,0,0,1,386.15,452.734Zm2.653,0a3.993,3.993,0,0,0,4,4.022c3.026,0,5.295-3.325,3.171-6.71a1.361,1.361,0,0,0-.366-.383,4.918,4.918,0,0,0-2.805-.953A4.024,4.024,0,0,0,388.8,452.734Zm-226.355,4.832a50.1,50.1,0,0,1-2.707-17.554c0-8.347,1.081-13.98,2.859-22.65a1.241,1.241,0,0,1,1.652-.916l3.946,1.495c.7.251,1.1.4,1.1.854,0,.314-.235.452-.557.523a1.258,1.258,0,0,0-.895.869,70.214,70.214,0,0,0-3.1,20.932c0,.589.006,1.121.02,1.61a1.239,1.239,0,0,0,2.377.456c.05-.117.1-.231.15-.345a1.243,1.243,0,0,1,2.058-.333,8.458,8.458,0,0,0,.865.8,1.253,1.253,0,0,1,.373,1.48c-.979,2.212-2.975,7.166-3.054,11.6a1.217,1.217,0,0,1-.863,1.167l-2.712.783a1.235,1.235,0,0,1-1.512-.779Zm115.754-.123c-3.586-8.2-3.68-18.878-3.68-21.25a83.675,83.675,0,0,1,2.151-18.721,1.241,1.241,0,0,1,1.527-.913l4.228,1.13c.55.151.8.2.8.6a.67.67,0,0,1-.527.617,1.3,1.3,0,0,0-.833.842,64.252,64.252,0,0,0-2.241,17.447,54.873,54.873,0,0,0,.38,6.747,1.241,1.241,0,0,0,2.4.289l.075-.2c.424-1.145.91-2.288,1.349-3.266a1.192,1.192,0,0,1,1.86-.488,12.659,12.659,0,0,0,1.467.928,1.25,1.25,0,0,1,.5,1.665,50.642,50.642,0,0,0-4.734,13.7,1.233,1.233,0,0,1-.952,1.035l-2.356.535a1.268,1.268,0,0,1-.277.031A1.231,1.231,0,0,1,278.2,457.443Zm-50.051-2.934a22.5,22.5,0,0,0-.864-2.778,1.242,1.242,0,0,1,1.142-1.684c7.826-.148,24.73-1.338,24.73-14.106,0-3.57-1.451-11.162-11.859-11.162-5.427,0-15.837,2.913-24.076,7.05a1.238,1.238,0,0,1-1.727-.677l-1.435-3.912a1.248,1.248,0,0,1,.986-1.663,43.724,43.724,0,0,0,6.036-1.4C231.243,421.259,236.347,420,242,420c11.659,0,16.663,7.692,16.663,15.837,0,17.3-22.408,19.281-29.252,19.615l-.06,0A1.246,1.246,0,0,1,228.152,454.509ZM174.8,447.856a17.087,17.087,0,0,1,1.537-6.6,1.246,1.246,0,0,1,1.393-.748l1.96.394a1.242,1.242,0,0,1,.895,1.715,9.308,9.308,0,0,0-.882,3.728c0,3.118,3.6,3.721,8.908,3.721a54.145,54.145,0,0,0,10.595-.957,1.243,1.243,0,0,1,1.479,1.375,26.747,26.747,0,0,0-.167,2.686,1.243,1.243,0,0,1-1.087,1.218,97.446,97.446,0,0,1-10.67.606C182.66,455,174.8,454.392,174.8,447.856Zm3.067-21.157a1.24,1.24,0,0,1-1.165-1.245v-2.5a1.242,1.242,0,0,1,1.33-1.244c1.056.077,2.315.149,4.074.149a63.205,63.205,0,0,0,14.214-1.284,1.218,1.218,0,0,1,1.522,1.067c.1.829.2,1.814.29,2.584a1.249,1.249,0,0,1-1.01,1.371,84.843,84.843,0,0,1-15.066,1.239C180.289,426.84,178.961,426.761,177.871,426.7Zm121.752-56.613a1.247,1.247,0,0,0-1.234-1.161h-2.96a1.243,1.243,0,0,0-1.24,1.246V388.9a1.244,1.244,0,0,1-1.241,1.246h-2.471a1.244,1.244,0,0,1-1.241-1.246V370.172a1.244,1.244,0,0,0-1.241-1.246h-3.6a1.236,1.236,0,0,0-1.236,1.143c-.3,3.979-1.447,12.441-8.4,19.386a1.241,1.241,0,0,1-1.725.054,12.374,12.374,0,0,0-2.058-1.5,1.253,1.253,0,0,1-.24-1.959,23.975,23.975,0,0,0,7.384-15.738,1.254,1.254,0,0,0-1.237-1.389h-5.417a1.244,1.244,0,0,1-1.241-1.247v-2.334a1.244,1.244,0,0,1,1.241-1.246h5.623a1.244,1.244,0,0,0,1.241-1.247v-2.929a1.244,1.244,0,0,0-1.577-1.2c-1.033.291-1.928.517-2.989.736a1.3,1.3,0,0,1-1.422-.806,9.57,9.57,0,0,0-.964-1.941,1.253,1.253,0,0,1,.9-1.906,31.678,31.678,0,0,0,11.659-3.969,1.238,1.238,0,0,1,1.556.169l2.394,2.483a1.6,1.6,0,0,1,.5,1.055.727.727,0,0,1-.7.755,1.409,1.409,0,0,1-.595-.148A1.4,1.4,0,0,0,286,355.2a18.832,18.832,0,0,1-1.913.933,1.253,1.253,0,0,0-.757,1.147v5.567a1.243,1.243,0,0,0,1.24,1.247h3.424a1.244,1.244,0,0,0,1.241-1.247v-10.37a1.244,1.244,0,0,1,1.344-1.243l3.459.29c1.051.1,1.352.5,1.352.855a.848.848,0,0,1-.534.694,1.246,1.246,0,0,0-.667,1.1v8.672a1.243,1.243,0,0,0,1.24,1.247h7.515a1.24,1.24,0,0,1,1.239,1.286c-.022.613-.038,1.338-.038,2.233,0,10.609,3.8,17.8,5.8,17.8,1.258,0,1.905-1.138,2.563-3.058a1.232,1.232,0,0,1,1.944-.587,6.551,6.551,0,0,0,1.38.9,1.258,1.258,0,0,1,.677,1.487c-.682,2.326-2.389,6.491-6.413,6.491C305.91,390.645,300.726,384.116,299.623,370.086ZM165.478,389.856a10.487,10.487,0,0,0-1.5-1.75,1.246,1.246,0,0,1,.346-2.023c5.764-2.613,6.993-7.229,7.23-10.891a1.24,1.24,0,0,0-1.9-1.131,47.223,47.223,0,0,1-7.558,3.964,1.242,1.242,0,0,1-1.516-.491,13.985,13.985,0,0,0-1.507-1.918,1.242,1.242,0,0,1,.518-2.035,34.8,34.8,0,0,0,11.838-6.618,1.253,1.253,0,0,0-.8-2.211h-6.4a1.243,1.243,0,0,1-1.24-1.246V346.943a1.243,1.243,0,0,1,1.24-1.246h34.647a1.244,1.244,0,0,1,1.241,1.246V363.5a1.244,1.244,0,0,1-1.241,1.246h-7.234a1.251,1.251,0,0,0-.788,2.218,40.294,40.294,0,0,0,12.267,6.53,1.254,1.254,0,0,1,.587,2.005,15.552,15.552,0,0,0-1.466,2.036,1.288,1.288,0,0,1-1.493.526,51.494,51.494,0,0,1-7.419-3.7,1.238,1.238,0,0,0-1.87,1.074v13.558a1.244,1.244,0,0,1-1.241,1.247H187.5a1.244,1.244,0,0,1-1.241-1.247V372.553a1.243,1.243,0,0,1,1.354-1.242l1.4.128a34.3,34.3,0,0,1-6.138-6.188,1.236,1.236,0,0,0-.99-.5h-1.342a1.243,1.243,0,0,0-.959.464,40.667,40.667,0,0,1-3.837,4.075,1.248,1.248,0,0,0,.7,2.157l.355.04c.45.049,1.15.1,1.15.7a.789.789,0,0,1-.588.771,1.252,1.252,0,0,0-.82,1.141c-.072,3.575-.857,12.15-9.46,16.216a1.212,1.212,0,0,1-.519.115A1.321,1.321,0,0,1,165.478,389.856Zm18.783-31.6v1.227a1.244,1.244,0,0,0,1.241,1.246h8.077a1.244,1.244,0,0,0,1.241-1.246v-1.227a1.244,1.244,0,0,0-1.241-1.246H185.5A1.244,1.244,0,0,0,184.261,358.256Zm-15.912,0v1.227a1.244,1.244,0,0,0,1.241,1.246h8.077a1.244,1.244,0,0,0,1.241-1.246v-1.227a1.244,1.244,0,0,0-1.241-1.246H169.59A1.244,1.244,0,0,0,168.349,358.256Zm15.912-7.291v1.127a1.244,1.244,0,0,0,1.241,1.247h8.077a1.244,1.244,0,0,0,1.241-1.247v-1.127a1.244,1.244,0,0,0-1.241-1.246H185.5A1.244,1.244,0,0,0,184.261,350.965Zm-15.912,0v1.127a1.244,1.244,0,0,0,1.241,1.247h8.077a1.244,1.244,0,0,0,1.241-1.247v-1.127a1.244,1.244,0,0,0-1.241-1.246H169.59A1.244,1.244,0,0,0,168.349,350.965Zm-59.8,39.277a1.244,1.244,0,0,1-1.241-1.247V362.982a1.245,1.245,0,0,0-1.241-1.247h-4.824A1.244,1.244,0,0,1,100,360.488v-2.333a1.244,1.244,0,0,1,1.241-1.246h4.824a1.244,1.244,0,0,0,1.241-1.247v-8.836a1.243,1.243,0,0,1,1.321-1.244l4.082.266c.3,0,1.152.05,1.152.7,0,.269-.247.466-.561.614a1.229,1.229,0,0,0-.692,1.116v7.381a1.244,1.244,0,0,0,1.241,1.247h5.674a1.244,1.244,0,0,0,1.241-1.247v-10.4a1.242,1.242,0,0,1,1.313-1.244l3.84.224c.4,0,1.2.1,1.2.653,0,.272-.27.489-.594.652a1.224,1.224,0,0,0-.658,1.1l0,9.02a1.244,1.244,0,0,0,1.24,1.247h5.275a1.244,1.244,0,0,0,1.241-1.247v-9.1a1.243,1.243,0,0,1,1.313-1.245l3.791.224c.4,0,1.1.05,1.1.6,0,.283-.255.508-.58.684a1.251,1.251,0,0,0-.623,1.106v7.723a1.244,1.244,0,0,0,1.241,1.247h5.275a1.245,1.245,0,0,1,1.241,1.246v2.333a1.245,1.245,0,0,1-1.241,1.246h-5.275a1.245,1.245,0,0,0-1.241,1.247v14.5a1.244,1.244,0,0,1-1.24,1.247H134.7a1.074,1.074,0,0,1-1.071-1.076v-.161a1.074,1.074,0,0,0-1.071-1.076h-5.445a1.243,1.243,0,0,0-1.24,1.246v.423a1.245,1.245,0,0,1-1.241,1.246h-2.622a1.244,1.244,0,0,1-1.241-1.246v-15.1a1.245,1.245,0,0,0-1.241-1.247h-5.674a1.245,1.245,0,0,0-1.241,1.247v18.874a1.244,1.244,0,0,0,1.241,1.246h27.841a1.244,1.244,0,0,1,1.24,1.247v2.383a1.243,1.243,0,0,1-1.24,1.247H113.681a1.073,1.073,0,0,0-1.071,1.076v.111a1.074,1.074,0,0,1-1.071,1.076Zm17.323-27.26v7.411a1.243,1.243,0,0,0,1.24,1.246h5.275a1.244,1.244,0,0,0,1.241-1.246v-7.411a1.245,1.245,0,0,0-1.241-1.247h-5.275A1.245,1.245,0,0,0,125.87,362.982Zm409.714,27.251a1.293,1.293,0,0,1-1.2-1,14.776,14.776,0,0,0-.883-3.018,1.239,1.239,0,0,1,1.254-1.7c.7.059,1.4.094,2.058.094,2.3,0,2.452-.7,2.452-2.562V352.223a1.244,1.244,0,0,0-1.241-1.247H524.84a1.244,1.244,0,0,1-1.241-1.246v-2.485A1.244,1.244,0,0,1,524.84,346h18.483a1.244,1.244,0,0,1,1.241,1.247v36.763c0,2.963-.613,6.233-8.346,6.233Q535.91,390.24,535.585,390.233Zm-23.332-.04a1.307,1.307,0,0,1-1.162-1.045,14.425,14.425,0,0,0-.758-2.757,1.245,1.245,0,0,1,1.284-1.685,23.775,23.775,0,0,0,2.575.157c1.952,0,1.952-.905,1.952-2.514V352.223a1.244,1.244,0,0,0-1.241-1.247H501.171a1.245,1.245,0,0,1-1.241-1.246v-2.485A1.245,1.245,0,0,1,501.171,346h18.985a1.245,1.245,0,0,1,1.241,1.247v36.864c0,4.324-1.338,6.119-7.538,6.119Q513.1,390.227,512.252,390.192Zm58.079-9.7c0-6.157,8.139-11.015,12.631-13.21a1.234,1.234,0,0,0,.617-1.569c-.5-1.217-1.526-2.467-4.342-2.467-3.56,0-7.583,2.185-12.956,10.619a1.243,1.243,0,0,1-1.7.4l-2.327-1.433a1.25,1.25,0,0,1-.278-1.891,110.567,110.567,0,0,0,9.845-13.373,1.25,1.25,0,0,0-1.117-1.9c-2.061.091-3.413.121-5.7.1a1.249,1.249,0,0,1-1.235-1.247V352.09a1.222,1.222,0,0,1,1.343-1.243c1.377.119,3.109.229,5.663.229,1.571,0,2.925-.031,3.92-.068a1.234,1.234,0,0,0,1.06-.7,41.059,41.059,0,0,0,2.341-5.45,1.248,1.248,0,0,1,1.145-.86h.071a1.3,1.3,0,0,1,.226.028l3.946.864c.3.05,1.052.2,1.052.855,0,.121-.032.5-.689.671a1.312,1.312,0,0,0-.892.706c-.158.348-.336.729-.565,1.211a1.245,1.245,0,0,0,1.291,1.776,60.371,60.371,0,0,0,8.614-1.838,1.238,1.238,0,0,1,1.6,1.154l.07,2.4a1.251,1.251,0,0,1-1.007,1.263c-5.456,1.056-10.363,1.686-13.451,2a1.242,1.242,0,0,0-.946.611c-.48.815-.875,1.483-1.228,2.068a1.245,1.245,0,0,0,1.316,1.859,10.328,10.328,0,0,1,2.086-.205,8.126,8.126,0,0,1,7.364,4.126,1.241,1.241,0,0,0,1.589.569c2.987-1.313,6.815-2.972,8.914-3.93a1.234,1.234,0,0,1,1.67.7l1.062,2.855a1.25,1.25,0,0,1-.813,1.632c-4.273,1.264-6.937,2.29-10.157,3.558a1.265,1.265,0,0,0-.787,1.274c.117,1.568.117,3.148.117,4.449,0,1.662-.026,2.8-.075,3.8a1.237,1.237,0,0,1-1.264,1.181c-.756-.016-1.708-.023-2.637-.005a1.248,1.248,0,0,1-1.266-1.338c.136-1.911.166-3.5.154-4.676a1.24,1.24,0,0,0-1.843-1.072c-6.537,3.67-7.431,5.782-7.431,7.637,0,1.558.352,3.872,9.408,3.872a58.933,58.933,0,0,0,13.565-1.633,1.244,1.244,0,0,1,1.528,1.391,20.972,20.972,0,0,0-.219,2.615,1.307,1.307,0,0,1-1,1.192,71.374,71.374,0,0,1-12.826,1.109C574.385,388.733,570.331,384.914,570.331,380.488Zm-182.288,7.944a1.244,1.244,0,0,1-1.241-1.246V384.7a1.244,1.244,0,0,1,1.241-1.247h21.8a1.247,1.247,0,0,0,1.174-.834,168.518,168.518,0,0,0,5.7-20.481,1.235,1.235,0,0,1,1.553-.94l3.962,1.138c.45.15.95.251.95.7,0,.342-.113.454-.578.641a1.413,1.413,0,0,0-.747.8c-1.7,5.7-3.771,12.82-5.3,17.329a1.244,1.244,0,0,0,1.177,1.643h13.518a1.244,1.244,0,0,1,1.241,1.247v2.485a1.244,1.244,0,0,1-1.241,1.246Zm234.4-.581a41.714,41.714,0,0,0-8.131-7.42,1.246,1.246,0,0,1-.188-1.854l1.782-1.947a1.238,1.238,0,0,1,1.584-.209,62.714,62.714,0,0,1,9.126,7.364,1.246,1.246,0,0,1,.02,1.773l-2.347,2.387a1.214,1.214,0,0,1-.872.366A1.269,1.269,0,0,1,622.446,387.851Zm-287.43-14.6c0-5.045,2.29-10.9,4.616-15.3a1.24,1.24,0,0,0-1.5-1.75c-1.746.585-3.486,1.057-5.4,1.508a1.242,1.242,0,0,1-1.467-.844l-.921-2.964a1.241,1.241,0,0,1,1-1.6,45.112,45.112,0,0,0,14.333-4.608,1.246,1.246,0,0,1,1.571.262l1.826,2.146a1.24,1.24,0,0,1-.041,1.66c-4.477,4.7-9.117,14.4-9.117,22,0,6.637,5.054,9.452,9.607,9.452,10.759,0,11.358-12.067,11.358-14.53a35.048,35.048,0,0,0-5.379-18.211,1.243,1.243,0,0,1,.466-1.728l2.584-1.433a1.239,1.239,0,0,1,1.68.487,51.46,51.46,0,0,0,14.577,16.628,1.251,1.251,0,0,1,.322,1.658c-.445.723-.978,1.615-1.429,2.415a1.185,1.185,0,0,1-1.887.329c-1.1-.957-2.61-2.335-4.236-4.036a1.237,1.237,0,0,0-2.133.949c.085,1.015.139,2.256.139,3.8,0,10.809-5.6,18.553-15.611,18.553C342.171,388.081,335.016,383.3,335.016,373.249ZM219.739,387.182a50.132,50.132,0,0,1-2.706-17.554c0-8.347,1.081-13.98,2.858-22.65a1.242,1.242,0,0,1,1.653-.917l3.945,1.5c.7.251,1.1.4,1.1.854,0,.315-.234.452-.556.523a1.255,1.255,0,0,0-.895.868,70.215,70.215,0,0,0-3.1,20.933c0,.589.006,1.121.019,1.609a1.24,1.24,0,0,0,2.378.457c.05-.117.1-.231.15-.346a1.243,1.243,0,0,1,2.058-.332,8.458,8.458,0,0,0,.865.8,1.254,1.254,0,0,1,.374,1.48c-.978,2.211-2.975,7.166-3.054,11.6a1.217,1.217,0,0,1-.863,1.167l-2.713.784a1.235,1.235,0,0,1-1.512-.778Zm236.573-3.059a22.735,22.735,0,0,0-.863-2.776,1.242,1.242,0,0,1,1.141-1.685c7.826-.148,24.73-1.338,24.73-14.106,0-3.569-1.451-11.161-11.859-11.161-5.426,0-15.836,2.912-24.076,7.05a1.239,1.239,0,0,1-1.727-.678l-1.434-3.911a1.247,1.247,0,0,1,.986-1.663,43.574,43.574,0,0,0,6.035-1.4c10.157-2.914,15.262-4.172,20.916-4.172,11.659,0,16.663,7.692,16.663,15.837,0,17.3-22.409,19.28-29.252,19.614l-.059,0A1.246,1.246,0,0,1,456.312,384.123Zm-224.218-6.651a17.086,17.086,0,0,1,1.537-6.6,1.246,1.246,0,0,1,1.392-.749l1.959.394a1.242,1.242,0,0,1,.9,1.715,9.312,9.312,0,0,0-.882,3.728c0,3.118,3.6,3.721,8.908,3.721a54.15,54.15,0,0,0,10.595-.957,1.244,1.244,0,0,1,1.479,1.376c-.084.732-.152,1.624-.167,2.686a1.243,1.243,0,0,1-1.086,1.217,97.226,97.226,0,0,1-10.67.6C239.95,384.611,232.094,384.008,232.094,377.472ZM502.432,382.1l-1.9-4.169a1.249,1.249,0,0,1,.588-1.637,88.8,88.8,0,0,0,11.177-6.843,1.236,1.236,0,0,1,1.938.9c.075.713.177,1.417.306,2.108a1.234,1.234,0,0,1-.434,1.207c-3.331,2.635-7.981,5.713-9.854,6.9a1.415,1.415,0,0,0-.571.955c-.07.826-.158,1.031-.652,1.031A.7.7,0,0,1,502.432,382.1Zm-102.01-1.111a68.033,68.033,0,0,0-4.962-16.29,1.254,1.254,0,0,1,.76-1.721l2.5-.77a1.241,1.241,0,0,1,1.5.686A81.377,81.377,0,0,1,405.46,379.7a1.251,1.251,0,0,1-.841,1.428c-.878.282-1.835.577-2.618.815a1.335,1.335,0,0,1-.387.059A1.2,1.2,0,0,1,400.423,380.985Zm125.728.408-1.6-3.8a1.241,1.241,0,0,1,.553-1.579c1.76-.927,3.627-2.156,5.6-3.42.751-.5,3.212-2.366,4.9-3.627a1.235,1.235,0,0,1,1.931.665c.168.616.365,1.285.58,2.027a1.243,1.243,0,0,1-.441,1.344c-1.883,1.42-4.442,3.426-6.172,4.719-1.854,1.366-2.656,1.948-3.385,2.449a1.212,1.212,0,0,0-.509.873c-.064.587-.215.952-.76.952C526.5,382,526.251,381.645,526.151,381.393ZM310.79,380.07a38.81,38.81,0,0,0-3.861-2.761,1.253,1.253,0,0,1-.352-1.811l.35-.473a1.251,1.251,0,0,0-.226-1.724l-.706-.56a1.255,1.255,0,0,1-.038-1.926c.661-.583,1.252-1.155,1.744-1.681a1.234,1.234,0,0,0-.15-1.825c-3-2.243-6.17-7.191-7.285-16.281a1.249,1.249,0,0,0-1.23-1.109H273.262a1.244,1.244,0,0,1-1.241-1.246v-2.031a1.244,1.244,0,0,1,1.241-1.246h30.166a1.239,1.239,0,0,1,1.239,1.291c-.014.34-.022.723-.022,1.173,0,10.056,4.454,15.787,6.154,15.787,1,0,1.752-.754,2.353-4.977-.1.2-.2.352-.3.553a48.588,48.588,0,0,0-5.969-4.049,1.25,1.25,0,0,1-.383-1.827l.846-1.139a1.249,1.249,0,0,0-.144-1.654c-.321-.3-.708-.653-1.124-1a1.247,1.247,0,0,1,.061-1.968A33.569,33.569,0,0,0,310,344.232a1.232,1.232,0,0,1,.327-.232h1.081a1.249,1.249,0,0,1,.2.121l2.595,1.928a.948.948,0,0,1,.5.754c0,.251-.15.6-.851.6a2.691,2.691,0,0,1-.951-.151c-.831.868-1.948,1.936-2.985,2.834a1.245,1.245,0,0,0,.21,2.024,48.077,48.077,0,0,1,4.219,2.671,1.236,1.236,0,0,1,.27,1.768c-.275.364-.587.788-.9,1.228a1.233,1.233,0,0,0,.143,1.617,8.231,8.231,0,0,0,2.25,1.4,1.294,1.294,0,0,1,.7,1.426c-.8,3.483-1.874,6.273-5.415,6.456l1.251.654q.6.3.6.754c0,.5-.455.619-.951.628a1.25,1.25,0,0,0-.965.459,15.457,15.457,0,0,1-1.174,1.308,1.245,1.245,0,0,0,.193,1.916c1.166.768,2.287,1.6,3.137,2.258a1.238,1.238,0,0,1,.174,1.808,13.1,13.1,0,0,0-1.077,1.351,1.213,1.213,0,0,1-1.8.26Zm198.234-14.718a62.383,62.383,0,0,0-5.479-7.741,1.244,1.244,0,0,1,.231-1.8l2.161-1.57a1.234,1.234,0,0,1,1.653.178,50.818,50.818,0,0,1,5.959,8.2,1.253,1.253,0,0,1-.465,1.686,23.952,23.952,0,0,0-2.264,1.423,1.214,1.214,0,0,1-.723.238A1.245,1.245,0,0,1,509.024,365.352Zm22.236-.472a81.049,81.049,0,0,0-5.607-8.122,1.248,1.248,0,0,1,.25-1.776l2.042-1.486a1.231,1.231,0,0,1,1.653.177,66.04,66.04,0,0,1,6.2,8.394,1.251,1.251,0,0,1-.455,1.763,23.241,23.241,0,0,0-2.313,1.456,1.239,1.239,0,0,1-1.775-.408Zm-140.965-6.161a1.244,1.244,0,0,1-1.241-1.247v-2.483a1.244,1.244,0,0,1,1.241-1.247h15.331a1.245,1.245,0,0,0,1.241-1.247V345.28a1.243,1.243,0,0,1,1.285-1.246l4.219.154c.3,0,.95.251.95.653a.686.686,0,0,1-.387.551,1.3,1.3,0,0,0-.563,1.111v5.991a1.245,1.245,0,0,0,1.241,1.247h15.181a1.244,1.244,0,0,1,1.241,1.247v2.483a1.244,1.244,0,0,1-1.241,1.247Zm-155.134-2.4a1.24,1.24,0,0,1-1.166-1.244v-2.5a1.244,1.244,0,0,1,1.331-1.244c1.056.077,2.315.15,4.074.15a63.259,63.259,0,0,0,14.214-1.283,1.217,1.217,0,0,1,1.522,1.066c.1.829.2,1.815.289,2.584a1.249,1.249,0,0,1-1.008,1.371,84.86,84.86,0,0,1-15.067,1.239C237.579,356.456,236.252,356.378,235.161,356.315ZM369.5,352.92c-.706-.909-1.742-2.189-2.824-3.328a1.254,1.254,0,0,1,.122-1.851l.571-.45a1.232,1.232,0,0,1,1.655.11c.885.923,2.077,2.21,3.047,3.391a1.249,1.249,0,0,1-.173,1.743c-.2.172-.372.328-.557.508a1.242,1.242,0,0,1-.868.353A1.224,1.224,0,0,1,369.5,352.92Zm4.068-3.418a32.455,32.455,0,0,0-2.785-3.193,1.25,1.25,0,0,1,.089-1.847l.543-.446.019-.015h1.531a1.2,1.2,0,0,1,.1.083c1.085,1.03,2.161,2.18,3.111,3.281a1.253,1.253,0,0,1-.193,1.81c-.21.161-.4.317-.595.495a1.243,1.243,0,0,1-1.817-.167Z" transform="translate(-100 -344)" fill="#fff"/>
</svg>
