<svg xmlns="http://www.w3.org/2000/svg" width="118.8" height="15" viewBox="0 0 118.8 15">
  <path id="パス_31" data-name="パス 31" d="M10-3.7c0-5-6.1-3.9-6.1-6.9a1.628,1.628,0,0,1,1.7-1.7,2.632,2.632,0,0,1,1.7.7v1.8H9.6v-3a6.284,6.284,0,0,0-4-1.7c-2.7,0-4.5,1.8-4.5,3.9,0,5,6.1,3.9,6.1,6.9a2.03,2.03,0,0,1-2.1,2c-1.9,0-3.2-2-3.2-2L.4-1.9A5.927,5.927,0,0,0,5.1.5C8.1.5,10-1.4,10-3.7Zm15.2-8.9a6.434,6.434,0,0,0-4.5-1.9c-3.6,0-6.4,2.8-6.4,7.5S17.1.5,20.7.5A6.028,6.028,0,0,0,25.6-2L24.1-3.8s-1.4,2.1-3.4,2.1c-1.9,0-3.6-1.7-3.6-5.3s1.7-5.3,3.6-5.3a3.1,3.1,0,0,1,2.2.9v2h2.3ZM34-14H29.9v2.3h1.5v9.4H29.9V0h5.6V-2.3H34V-6h4.4V0h4.1V-2.3H41v-9.4h1.5V-14H36.9v2.3h1.5v3.4H34ZM47,0H57.4V-4.6H55.1v2.3h-4V-6h3V-8.3h-3v-3.4h4v2.3h2.3V-14H47v2.3h1.5v9.4H47ZM66.2-2.3v-9.4h1.7c1.9,0,3.3,1.4,3.3,4.7s-1.4,4.7-3.3,4.7ZM74-7c0-4.3-2.7-7-6.1-7H62.1v2.3h1.5v9.4H62.1V0h5.8C71.3,0,74-2.7,74-7Zm7.6-7H77.5v2.3H79v7.5A4.6,4.6,0,0,0,83.8.5a4.6,4.6,0,0,0,4.8-4.7v-7.5h1.5V-14H84.5v2.3H86v7.5a2.27,2.27,0,0,1-2.2,2.4,2.27,2.27,0,0,1-2.2-2.4Zm12.6,2.3h1.5v9.4H94.2V0h10.1V-4.9H102v2.6H98.3v-9.4h1.5V-14H94.2ZM108.8,0h10.4V-4.6h-2.3v2.3h-4V-6h3V-8.3h-3v-3.4h4v2.3h2.3V-14H108.8v2.3h1.5v9.4h-1.5Z" transform="translate(-0.4 14.5)" fill="#0f0f0f"/>
</svg>
