<svg xmlns="http://www.w3.org/2000/svg" width="72.6" height="15" viewBox="0 0 72.6 15">
  <path id="パス_78" data-name="パス 78" d="M10-3.7c0-5-6.1-3.9-6.1-6.9a1.628,1.628,0,0,1,1.7-1.7,2.632,2.632,0,0,1,1.7.7v1.8H9.6v-3a6.284,6.284,0,0,0-4-1.7c-2.7,0-4.5,1.8-4.5,3.9,0,5,6.1,3.9,6.1,6.9a2.03,2.03,0,0,1-2.1,2c-1.9,0-3.2-2-3.2-2L.4-1.9A5.927,5.927,0,0,0,5.1.5C8.1.5,10-1.4,10-3.7Zm11.3-8h1.9V-9h2.3v-5h-11v5h2.3v-2.7h1.9v9.4H17.2V0h5.6V-2.3H21.3ZM42.4-7c0-4.7-2.8-7.5-6.3-7.5S29.8-11.7,29.8-7,32.6.5,36.1.5,42.4-2.3,42.4-7ZM39.6-7c0,3.6-1.7,5.3-3.5,5.3S32.6-3.4,32.6-7s1.7-5.3,3.5-5.3S39.6-10.6,39.6-7ZM50.8-5.6h1.9l3,5.6h3V-2.3H57.3L55.2-6.2v-.1a3.534,3.534,0,0,0,2.3-3.5c0-2.6-1.6-4.2-4.3-4.2H46.7v2.3h1.5v9.4H46.7V0h5.6V-2.3H50.8Zm0-6.1h2.4c.8,0,1.5.7,1.5,1.9S54-7.9,53.2-7.9H50.8ZM68.5-5.3l3.1-6.4H73V-14H69.8L67.24-8.6h-.08L64.6-14H61.4v2.3h1.4l3.1,6.4v3H64.4V0H70V-2.3H68.5Z" transform="translate(-0.4 14.5)" fill="#0f0f0f"/>
</svg>
