<svg xmlns="http://www.w3.org/2000/svg" width="104.2" height="15" viewBox="0 0 104.2 15">
  <path id="パス_72" data-name="パス 72" d="M10-3.7c0-5-6.1-3.9-6.1-6.9a1.628,1.628,0,0,1,1.7-1.7,2.632,2.632,0,0,1,1.7.7v1.8H9.6v-3a6.284,6.284,0,0,0-4-1.7c-2.7,0-4.5,1.8-4.5,3.9,0,5,6.1,3.9,6.1,6.9a2.03,2.03,0,0,1-2.1,2c-1.9,0-3.2-2-3.2-2L.4-1.9A5.927,5.927,0,0,0,5.1.5C8.1.5,10-1.4,10-3.7ZM18.2-14H14.1v2.3h1.5v7.5A4.6,4.6,0,0,0,20.4.5a4.6,4.6,0,0,0,4.8-4.7v-7.5h1.5V-14H21.1v2.3h1.5v7.5a2.27,2.27,0,0,1-2.2,2.4,2.27,2.27,0,0,1-2.2-2.4ZM34.9-5.2h2.4a4.124,4.124,0,0,0,4.5-4.4A4.124,4.124,0,0,0,37.3-14H30.8v2.3h1.5v9.4H30.8V0h5.6V-2.3H34.9Zm0-6.5h2.4A1.871,1.871,0,0,1,39-9.6a1.871,1.871,0,0,1-1.7,2.1H34.9ZM50-5.2h2.4a4.124,4.124,0,0,0,4.5-4.4A4.124,4.124,0,0,0,52.4-14H45.9v2.3h1.5v9.4H45.9V0h5.6V-2.3H50Zm0-6.5h2.4a1.871,1.871,0,0,1,1.7,2.1,1.871,1.871,0,0,1-1.7,2.1H50ZM73.8-7c0-4.7-2.8-7.5-6.3-7.5S61.2-11.7,61.2-7,64,.5,67.5.5,73.8-2.3,73.8-7ZM71-7c0,3.6-1.7,5.3-3.5,5.3S64-3.4,64-7s1.7-5.3,3.5-5.3S71-10.6,71-7ZM82.2-5.6h1.9l3,5.6h3V-2.3H88.7L86.6-6.2v-.1a3.534,3.534,0,0,0,2.3-3.5c0-2.6-1.6-4.2-4.3-4.2H78.1v2.3h1.5v9.4H78.1V0h5.6V-2.3H82.2Zm0-6.1h2.4c.8,0,1.5.7,1.5,1.9s-.7,1.9-1.5,1.9H82.2Zm18.2,0h1.9V-9h2.3v-5h-11v5h2.3v-2.7h1.9v9.4H96.3V0h5.6V-2.3h-1.5Z" transform="translate(-0.4 14.5)" fill="#0f0f0f"/>
</svg>
